<svg width="22" height="21" viewBox="0 0 22 21" fill="none" xmlns="http://www.w3.org/2000/svg">
<mask id="mask0_6_1164" style="mask-type:luminance" maskUnits="userSpaceOnUse" x="0" y="0" width="22" height="21">
<path d="M0.443298 0.0586853H21.1684V20.7838H0.443298V0.0586853Z" fill="white"/>
</mask>
<g mask="url(#mask0_6_1164)">
<path d="M10.8059 6.10351C10.3309 6.10351 9.94232 6.49211 9.94232 6.96706V9.55769H7.35168C6.87673 9.55769 6.48814 9.94629 6.48814 10.4212C6.48814 10.8962 6.87673 11.2848 7.35168 11.2848H9.94232V13.8754C9.94232 14.3504 10.3309 14.739 10.8059 14.739C11.2808 14.739 11.6694 14.3504 11.6694 13.8754V11.2848H14.26C14.735 11.2848 15.1236 10.8962 15.1236 10.4212C15.1236 9.94629 14.735 9.55769 14.26 9.55769H11.6694V6.96706C11.6694 6.49211 11.2808 6.10351 10.8059 6.10351ZM10.8059 1.78578C6.04773 1.78578 2.17041 5.6631 2.17041 10.4212C2.17041 15.1794 6.04773 19.0567 10.8059 19.0567C15.564 19.0567 19.4413 15.1794 19.4413 10.4212C19.4413 5.6631 15.564 1.78578 10.8059 1.78578ZM10.8059 17.3296C6.99763 17.3296 3.8975 14.2295 3.8975 10.4212C3.8975 6.613 6.99763 3.51287 10.8059 3.51287C14.6141 3.51287 17.7142 6.613 17.7142 10.4212C17.7142 14.2295 14.6141 17.3296 10.8059 17.3296Z" fill="white"/>
</g>
</svg>
