<svg width="18" height="18" viewBox="0 0 18 18" fill="none" xmlns="http://www.w3.org/2000/svg">
<path d="M8.65206 4.59902C8.17711 4.59902 7.78851 4.98762 7.78851 5.46257V8.05321H5.19788C4.72293 8.05321 4.33433 8.4418 4.33433 8.91675C4.33433 9.3917 4.72293 9.7803 5.19788 9.7803H7.78851V12.3709C7.78851 12.8459 8.17711 13.2345 8.65206 13.2345C9.12701 13.2345 9.5156 12.8459 9.5156 12.3709V9.7803H12.1062C12.5812 9.7803 12.9698 9.3917 12.9698 8.91675C12.9698 8.4418 12.5812 8.05321 12.1062 8.05321H9.5156V5.46257C9.5156 4.98762 9.12701 4.59902 8.65206 4.59902ZM8.65206 0.281296C3.89392 0.281296 0.0166016 4.15862 0.0166016 8.91675C0.0166016 13.6749 3.89392 17.5522 8.65206 17.5522C13.4102 17.5522 17.2875 13.6749 17.2875 8.91675C17.2875 4.15862 13.4102 0.281296 8.65206 0.281296ZM8.65206 15.8251C4.84382 15.8251 1.74369 12.725 1.74369 8.91675C1.74369 5.10852 4.84382 2.00839 8.65206 2.00839C12.4603 2.00839 15.5604 5.10852 15.5604 8.91675C15.5604 12.725 12.4603 15.8251 8.65206 15.8251Z" fill="#213F50"/>
</svg>
