<svg width="15" height="20" viewBox="0 0 15 20" fill="none" xmlns="http://www.w3.org/2000/svg">
<path d="M13.8622 19.1084C13.7193 19.1076 13.5809 19.0585 13.4695 18.9691L7.52808 14.2185L1.59301 18.9691C1.49993 19.0446 1.38732 19.0921 1.26829 19.1062C1.14925 19.1203 1.02867 19.1003 0.920545 19.0485C0.812423 18.9968 0.721201 18.9154 0.657476 18.8139C0.593752 18.7124 0.560142 18.5949 0.560551 18.475V0.739491C0.560551 0.5715 0.627285 0.410389 0.746073 0.291601C0.86486 0.172813 1.02597 0.106079 1.19396 0.106079H13.8622C14.0302 0.106079 14.1913 0.172813 14.3101 0.291601C14.4289 0.410389 14.4956 0.5715 14.4956 0.739491V18.475C14.4953 18.5944 14.4612 18.7113 14.3973 18.8121C14.3334 18.913 14.2423 18.9937 14.1346 19.0451C14.0503 19.0882 13.9568 19.11 13.8622 19.1084ZM7.52808 12.7743C7.67313 12.7737 7.81399 12.8229 7.92713 12.9137L13.2288 17.1575V1.3729H1.82737V17.1575L7.13536 12.9137C7.2468 12.8242 7.3852 12.7751 7.52808 12.7743Z" fill="#478CC8"/>
</svg>
