<svg width="12" height="7" viewBox="0 0 12 7" fill="none" xmlns="http://www.w3.org/2000/svg">
<path d="M6.40922 6.79717L11.5794 1.62689C11.6991 1.50731 11.765 1.34768 11.765 1.17747C11.765 1.00725 11.6991 0.847623 11.5794 0.728041L11.1987 0.347285C10.9507 0.0995252 10.5476 0.0995252 10.2999 0.347285L5.95828 4.6889L1.61185 0.342468C1.49218 0.222886 1.33264 0.15686 1.16252 0.15686C0.992216 0.15686 0.832679 0.222886 0.712908 0.342468L0.332341 0.723223C0.212665 0.8429 0.146734 1.00244 0.146734 1.17265C0.146734 1.34286 0.212665 1.50249 0.332341 1.62207L5.50725 6.79717C5.62731 6.91704 5.7876 6.98287 5.958 6.9825C6.12906 6.98287 6.28926 6.91704 6.40922 6.79717Z" fill="#213F50"/>
</svg>
