<svg width="19" height="18" viewBox="0 0 19 18" fill="none" xmlns="http://www.w3.org/2000/svg">
<path d="M2.19914 8.16067L0.800558 15.5899C0.755835 15.8304 0.764589 16.0778 0.826198 16.3146C0.887807 16.5514 1.00076 16.7717 1.15705 16.9599C1.31334 17.1482 1.50913 17.2997 1.73054 17.4038C1.95195 17.5079 2.19355 17.562 2.43821 17.5622H16.3881C16.633 17.5632 16.875 17.5099 17.0967 17.4061C17.3184 17.3023 17.5144 17.1506 17.6705 16.962C17.8265 16.7733 17.9388 16.5524 17.9992 16.3152C18.0596 16.0779 18.0667 15.8302 18.0198 15.5899L16.6272 8.16067C16.5572 7.77923 16.3555 7.43446 16.0573 7.18651C15.7591 6.93856 15.3833 6.80316 14.9955 6.80393H12.1027C12.5803 6.28212 12.8957 5.63266 13.0106 4.93471C13.1255 4.23676 13.0349 3.52046 12.7498 2.87311C12.4647 2.22575 11.9975 1.67531 11.405 1.28887C10.8126 0.902418 10.1205 0.696655 9.41317 0.696655C8.70583 0.696655 8.01376 0.902418 7.42131 1.28887C6.82886 1.67531 6.36162 2.22575 6.07653 2.87311C5.79145 3.52046 5.70083 4.23676 5.81572 4.93471C5.93061 5.63266 6.24605 6.28212 6.7236 6.80393H3.83081C3.443 6.80316 3.06722 6.93856 2.76902 7.18651C2.47083 7.43446 2.26914 7.77923 2.19914 8.16067ZM6.96267 4.35343C6.96267 3.86877 7.10639 3.39499 7.37566 2.99201C7.64492 2.58902 8.02764 2.27494 8.47541 2.08946C8.92318 1.90399 9.41589 1.85546 9.89124 1.95002C10.3666 2.04457 10.8032 2.27796 11.1459 2.62067C11.4886 2.96337 11.722 3.40001 11.8166 3.87536C11.9111 4.35071 11.8626 4.84343 11.6771 5.2912C11.4917 5.73897 11.1776 6.12168 10.7746 6.39095C10.3716 6.66021 9.89784 6.80393 9.41317 6.80393C8.76374 6.80235 8.14137 6.54367 7.68215 6.08445C7.22293 5.62524 6.96425 5.00286 6.96267 4.35343Z" fill="#478CC8"/>
</svg>
