<svg width="203" height="159" viewBox="0 0 203 159" fill="none" xmlns="http://www.w3.org/2000/svg">
<path d="M26.5249 139.707L20.4449 151.007C19.9116 152.007 19.2716 152.76 18.5249 153.267C17.7916 153.76 16.9916 154.007 16.1249 154.007C15.4316 154.007 14.7449 153.86 14.0649 153.567L14.7049 151.527C15.2516 151.7 15.7049 151.787 16.0649 151.787C16.9049 151.787 17.5983 151.353 18.1449 150.487L18.3649 150.147L12.7849 139.707H15.5649L19.7049 147.927L23.9649 139.707H26.5249ZM41.6134 148.147C42.9334 148.547 43.5934 149.4 43.5934 150.707C43.5934 151.667 43.2334 152.407 42.5134 152.927C41.7934 153.447 40.7267 153.707 39.3134 153.707H33.8734V143.027H39.0934C40.4 143.027 41.42 143.267 42.1534 143.747C42.8867 144.227 43.2534 144.907 43.2534 145.787C43.2534 146.333 43.1067 146.807 42.8134 147.207C42.5334 147.607 42.1334 147.92 41.6134 148.147ZM36.2534 147.487H38.8734C40.1667 147.487 40.8134 147.04 40.8134 146.147C40.8134 145.28 40.1667 144.847 38.8734 144.847H36.2534V147.487ZM39.1134 151.887C40.4867 151.887 41.1734 151.44 41.1734 150.547C41.1734 150.08 41.0134 149.733 40.6934 149.507C40.3734 149.267 39.8734 149.147 39.1934 149.147H36.2534V151.887H39.1134ZM50.2362 142.907C51.8095 142.907 53.0095 143.287 53.8362 144.047C54.6762 144.793 55.0962 145.927 55.0962 147.447V153.707H52.7362V152.407C52.4295 152.873 51.9895 153.233 51.4162 153.487C50.8562 153.727 50.1762 153.847 49.3762 153.847C48.5762 153.847 47.8762 153.713 47.2762 153.447C46.6762 153.167 46.2095 152.787 45.8762 152.307C45.5562 151.813 45.3962 151.26 45.3962 150.647C45.3962 149.687 45.7495 148.92 46.4562 148.347C47.1762 147.76 48.3028 147.467 49.8362 147.467H52.5962V147.307C52.5962 146.56 52.3695 145.987 51.9162 145.587C51.4762 145.187 50.8162 144.987 49.9362 144.987C49.3362 144.987 48.7428 145.08 48.1562 145.267C47.5828 145.453 47.0962 145.713 46.6962 146.047L45.7162 144.227C46.2762 143.8 46.9495 143.473 47.7362 143.247C48.5228 143.02 49.3562 142.907 50.2362 142.907ZM49.8962 152.027C50.5228 152.027 51.0762 151.887 51.5562 151.607C52.0495 151.313 52.3962 150.9 52.5962 150.367V149.127H50.0162C48.5762 149.127 47.8562 149.6 47.8562 150.547C47.8562 151 48.0362 151.36 48.3962 151.627C48.7562 151.893 49.2562 152.027 49.8962 152.027ZM63.0498 153.847C61.9431 153.847 60.9498 153.613 60.0698 153.147C59.1898 152.68 58.5031 152.033 58.0098 151.207C57.5164 150.367 57.2698 149.42 57.2698 148.367C57.2698 147.313 57.5164 146.373 58.0098 145.547C58.5031 144.72 59.1831 144.073 60.0498 143.607C60.9298 143.14 61.9298 142.907 63.0498 142.907C64.1031 142.907 65.0231 143.12 65.8098 143.547C66.6098 143.973 67.2098 144.587 67.6098 145.387L65.6898 146.507C65.3831 146.013 64.9964 145.647 64.5298 145.407C64.0764 145.153 63.5764 145.027 63.0298 145.027C62.0964 145.027 61.3231 145.333 60.7098 145.947C60.0964 146.547 59.7898 147.353 59.7898 148.367C59.7898 149.38 60.0898 150.193 60.6898 150.807C61.3031 151.407 62.0831 151.707 63.0298 151.707C63.5764 151.707 64.0764 151.587 64.5298 151.347C64.9964 151.093 65.3831 150.72 65.6898 150.227L67.6098 151.347C67.1964 152.147 66.5898 152.767 65.7898 153.207C65.0031 153.633 64.0898 153.847 63.0498 153.847ZM75.3382 143.027H77.8382V147.367H83.2182V143.027H85.7182V153.707H83.2182V149.487H77.8382V153.707H75.3382V143.027ZM99.0687 148.427C99.0687 148.6 99.0553 148.847 99.0287 149.167H90.6487C90.7953 149.953 91.1753 150.58 91.7887 151.047C92.4153 151.5 93.1887 151.727 94.1087 151.727C95.282 151.727 96.2487 151.34 97.0087 150.567L98.3487 152.107C97.8687 152.68 97.262 153.113 96.5287 153.407C95.7953 153.7 94.9687 153.847 94.0487 153.847C92.8753 153.847 91.842 153.613 90.9487 153.147C90.0553 152.68 89.362 152.033 88.8687 151.207C88.3887 150.367 88.1487 149.42 88.1487 148.367C88.1487 147.327 88.382 146.393 88.8487 145.567C89.3287 144.727 89.9887 144.073 90.8287 143.607C91.6687 143.14 92.6153 142.907 93.6687 142.907C94.7087 142.907 95.6353 143.14 96.4487 143.607C97.2753 144.06 97.9153 144.707 98.3687 145.547C98.8353 146.373 99.0687 147.333 99.0687 148.427ZM93.6687 144.907C92.8687 144.907 92.1887 145.147 91.6287 145.627C91.082 146.093 90.7487 146.72 90.6287 147.507H96.6887C96.582 146.733 96.2553 146.107 95.7087 145.627C95.162 145.147 94.482 144.907 93.6687 144.907ZM109.872 145.147H106.132V153.707H103.632V145.147H99.8724V143.027H109.872V145.147ZM127.713 153.707V146.627L124.113 152.587H123.033L119.493 146.607V153.707H117.213V143.027H119.833L123.633 149.707L127.613 143.027H129.953L129.973 153.707H127.713ZM137.306 142.907C138.88 142.907 140.08 143.287 140.906 144.047C141.746 144.793 142.166 145.927 142.166 147.447V153.707H139.806V152.407C139.5 152.873 139.06 153.233 138.486 153.487C137.926 153.727 137.246 153.847 136.446 153.847C135.646 153.847 134.946 153.713 134.346 153.447C133.746 153.167 133.28 152.787 132.946 152.307C132.626 151.813 132.466 151.26 132.466 150.647C132.466 149.687 132.82 148.92 133.526 148.347C134.246 147.76 135.373 147.467 136.906 147.467H139.666V147.307C139.666 146.56 139.44 145.987 138.986 145.587C138.546 145.187 137.886 144.987 137.006 144.987C136.406 144.987 135.813 145.08 135.226 145.267C134.653 145.453 134.166 145.713 133.766 146.047L132.786 144.227C133.346 143.8 134.02 143.473 134.806 143.247C135.593 143.02 136.426 142.907 137.306 142.907ZM136.966 152.027C137.593 152.027 138.146 151.887 138.626 151.607C139.12 151.313 139.466 150.9 139.666 150.367V149.127H137.086C135.646 149.127 134.926 149.6 134.926 150.547C134.926 151 135.106 151.36 135.466 151.627C135.826 151.893 136.326 152.027 136.966 152.027ZM161 143.027V153.707H145.26V143.027H147.76V151.587H151.9V143.027H154.4V151.587H158.5V143.027H161ZM164.362 143.027H166.862V150.067L172.762 143.027H175.042V153.707H172.542V146.667L166.662 153.707H164.362V143.027ZM178.405 143.027H180.905V147.367H186.285V143.027H188.785V153.707H186.285V149.487H180.905V153.707H178.405V143.027Z" fill="#213F50"/>
<path fill-rule="evenodd" clip-rule="evenodd" d="M144.456 2.14631C161.949 6.20571 168.641 16.435 177.031 30.5144H144.456V2.14631ZM42.2208 31.6967C45.6459 31.6967 48.1321 33.35 48.1321 37.2139C48.1321 40.4728 45.4951 43.116 42.2377 43.1252H6.52508C3.26 43.1252 0.61377 45.773 0.61377 49.0365C0.61377 52.3016 3.26 54.9478 6.52508 54.9478H59.7269C63.0227 54.9478 65.6613 57.5925 65.6613 60.8592C65.6613 64.1242 63.015 66.7705 59.75 66.7705H6.52508C3.26 66.7705 0.61377 69.4167 0.61377 72.6818C0.61377 75.9468 3.26 78.5931 6.52508 78.5931H19.53V96.327C19.53 99.5921 22.1762 102.238 25.4413 102.238H37.3239C39.4421 112.672 48.6616 120.366 59.5298 120.366C70.398 120.366 79.6175 112.672 81.7357 102.238H141.757C143.875 112.672 153.095 120.366 163.963 120.366C174.831 120.366 184.051 112.672 186.169 102.238H196.475C199.74 102.238 202.386 99.5921 202.386 96.327V60.8592C202.386 43.5147 184.092 42.3632 184.075 42.3371H138.544C135.279 42.3371 132.633 39.6908 132.633 36.4257V0.957886H25.4413C22.1762 0.957886 19.53 3.60412 19.53 6.8692V19.8741H12.4364C9.17131 19.8741 6.52508 22.5203 6.52508 25.7854C6.52508 29.0505 9.17131 31.6967 12.4364 31.6967H42.2208ZM171.626 90.0432C175.858 94.275 175.858 101.139 171.626 105.371C164.819 112.178 153.126 107.335 153.126 97.7063C153.126 88.0789 164.819 83.2359 171.626 90.0432ZM67.193 90.0432C71.4248 94.275 71.4248 101.139 67.193 105.371C60.3857 112.178 48.6924 107.335 48.6924 97.7063C48.6924 88.0789 60.3857 83.2359 67.193 90.0432Z" fill="#E6F3FF"/>
</svg>
