<svg width="16" height="14" viewBox="0 0 16 14" fill="none" xmlns="http://www.w3.org/2000/svg">
<path d="M0.630151 10.8466H12.1392C12.2424 10.8466 12.3421 10.8105 12.4213 10.7447C12.5318 10.6521 15.0534 8.4829 15.2072 3.80032H2.84675C2.69358 8.05084 0.371287 10.0487 0.347153 10.0686C0.205669 10.1882 0.153614 10.3835 0.217266 10.5572C0.280477 10.7305 0.445214 10.8466 0.630151 10.8466Z" fill="#478CC8"/>
<path d="M14.7815 1.15805H12.5795V0.717652C12.5795 0.47103 12.3857 0.277256 12.1391 0.277256C11.8925 0.277256 11.6987 0.47103 11.6987 0.717652V1.15805H9.46738V0.717652C9.46738 0.47103 9.27361 0.277256 9.02699 0.277256C8.78037 0.277256 8.58659 0.47103 8.58659 0.717652V1.15805H6.38461V0.717652C6.38461 0.47103 6.19084 0.277256 5.94422 0.277256C5.6976 0.277256 5.50382 0.47103 5.50382 0.717652V1.15805H3.30185C3.05522 1.15805 2.86145 1.35182 2.86145 1.59844V2.91963H15.2219V1.59844C15.2219 1.35182 15.0281 1.15805 14.7815 1.15805Z" fill="#478CC8"/>
<path d="M12.9868 11.4202C12.7477 11.6193 12.4475 11.7277 12.1391 11.7277H2.86145V13.0489C2.86145 13.2923 3.05842 13.4893 3.30185 13.4893H14.7815C15.0249 13.4893 15.2219 13.2923 15.2219 13.0489V8.11214C14.3728 10.1952 13.188 11.2518 12.9868 11.4202Z" fill="#478CC8"/>
</svg>
