<svg width="21" height="13" viewBox="0 0 21 13" fill="none" xmlns="http://www.w3.org/2000/svg">
<path fill-rule="evenodd" clip-rule="evenodd" d="M15.05 0.729913C16.819 1.1404 17.4957 2.17478 18.344 3.59847H15.05V0.729913ZM4.71215 3.71802C5.0585 3.71802 5.30989 3.8852 5.30989 4.27592C5.30989 4.60546 5.04324 4.87273 4.71386 4.87367H1.10263C0.772468 4.87367 0.504883 5.14141 0.504883 5.47141C0.504883 5.80157 0.772468 6.06916 1.10263 6.06916H6.48235C6.81562 6.06916 7.08243 6.33659 7.08243 6.6669C7.08243 6.99707 6.81484 7.26465 6.48468 7.26465H1.10263C0.772468 7.26465 0.504883 7.53224 0.504883 7.8624C0.504883 8.19256 0.772468 8.46014 1.10263 8.46014H2.41767V10.2534C2.41767 10.5835 2.68526 10.8511 3.01542 10.8511H4.21698C4.43117 11.9062 5.36344 12.6842 6.46242 12.6842C7.5614 12.6842 8.49367 11.9062 8.70786 10.8511H14.7772C14.9914 11.9062 15.9236 12.6842 17.0226 12.6842C18.1216 12.6842 19.0539 11.9062 19.268 10.8511H20.3102C20.6404 10.8511 20.908 10.5835 20.908 10.2534V6.6669C20.908 4.91305 19.0581 4.79661 19.0563 4.79397H14.4523C14.1221 4.79397 13.8546 4.52638 13.8546 4.19622V0.609741H3.01542C2.68526 0.609741 2.41767 0.877326 2.41767 1.20749V2.52253H1.70038C1.37021 2.52253 1.10263 2.79011 1.10263 3.12028C1.10263 3.45044 1.37021 3.71802 1.70038 3.71802H4.71215ZM17.7975 9.61797C18.2254 10.0459 18.2254 10.74 17.7975 11.1679C17.1092 11.8562 15.9267 11.3665 15.9267 10.3929C15.9267 9.41934 17.1092 8.92962 17.7975 9.61797ZM7.23731 9.61797C7.66523 10.0459 7.66523 10.74 7.23731 11.1679C6.54897 11.8562 5.36655 11.3665 5.36655 10.3929C5.36655 9.41934 6.54897 8.92962 7.23731 9.61797Z" fill="#478CC8"/>
</svg>
