<svg width="15" height="15" viewBox="0 0 15 15" fill="none" xmlns="http://www.w3.org/2000/svg">
<path d="M12.0878 0.121826H2.26815C1.71008 0.121826 1.17487 0.343519 0.78025 0.738135C0.385634 1.13275 0.16394 1.66797 0.16394 2.22604V12.0457C0.16394 12.6038 0.385634 13.139 0.78025 13.5336C1.17487 13.9282 1.71008 14.1499 2.26815 14.1499H12.0878C12.6459 14.1499 13.1811 13.9282 13.5757 13.5336C13.9703 13.139 14.192 12.6038 14.192 12.0457V2.22604C14.192 1.66797 13.9703 1.13275 13.5757 0.738135C13.1811 0.343519 12.6459 0.121826 12.0878 0.121826ZM12.7892 12.0457C12.7892 12.2317 12.7153 12.4101 12.5838 12.5417C12.4522 12.6732 12.2738 12.7471 12.0878 12.7471H2.26815C2.08213 12.7471 1.90372 12.6732 1.77218 12.5417C1.64065 12.4101 1.56675 12.2317 1.56675 12.0457V2.22604C1.56675 2.04001 1.64065 1.86161 1.77218 1.73007C1.90372 1.59853 2.08213 1.52463 2.26815 1.52463H12.0878C12.2738 1.52463 12.4522 1.59853 12.5838 1.73007C12.7153 1.86161 12.7892 2.04001 12.7892 2.22604V12.0457ZM11.1549 3.82524C11.2856 3.95666 11.3589 4.13443 11.3589 4.31973C11.3589 4.50503 11.2856 4.6828 11.1549 4.81422L5.92247 10.3834C5.85646 10.4526 5.77698 10.5076 5.68893 10.545C5.60088 10.5824 5.5061 10.6014 5.41044 10.6008C5.31478 10.6014 5.22 10.5824 5.13195 10.545C5.0439 10.5076 4.96442 10.4526 4.89842 10.3834L3.18699 8.53867C3.11596 8.47357 3.05911 8.39453 3.01998 8.30648C2.98085 8.21843 2.96028 8.12327 2.95956 8.02692C2.95883 7.93057 2.97796 7.83511 3.01575 7.74648C3.05355 7.65785 3.1092 7.57796 3.17924 7.51179C3.24927 7.44562 3.33219 7.39459 3.42282 7.36188C3.51344 7.32917 3.60984 7.31548 3.70599 7.32167C3.80214 7.32786 3.89599 7.35379 3.98167 7.39785C4.06736 7.44191 4.14305 7.50315 4.20403 7.57775L5.4385 8.88937L10.1589 3.86732C10.2213 3.79875 10.2967 3.74323 10.3807 3.70396C10.4646 3.66469 10.5555 3.64246 10.6482 3.63854C10.7408 3.63463 10.8333 3.64911 10.9202 3.68116C11.0072 3.7132 11.087 3.76217 11.1549 3.82524Z" fill="#478CC8"/>
</svg>
