<svg width="14" height="14" viewBox="0 0 14 14" fill="none" xmlns="http://www.w3.org/2000/svg">
<path d="M8.08249 7.22482L12.9504 2.35676C13.2672 2.04011 13.2672 1.52813 12.9504 1.21148C12.6338 0.894837 12.1218 0.894837 11.8051 1.21148L6.93707 6.07955L2.06915 1.21148C1.75235 0.894837 1.24052 0.894837 0.923876 1.21148C0.60708 1.52813 0.60708 2.04011 0.923876 2.35676L5.7918 7.22482L0.923876 12.0929C0.60708 12.4095 0.60708 12.9215 0.923876 13.2382C1.08168 13.3961 1.28917 13.4755 1.49651 13.4755C1.70385 13.4755 1.91119 13.3961 2.06915 13.2382L6.93707 8.3701L11.8051 13.2382C11.9631 13.3961 12.1704 13.4755 12.3778 13.4755C12.5851 13.4755 12.7925 13.3961 12.9504 13.2382C13.2672 12.9215 13.2672 12.4095 12.9504 12.0929L8.08249 7.22482Z" fill="#213F50"/>
</svg>
