<svg width="31" height="31" viewBox="0 0 31 31" fill="none" xmlns="http://www.w3.org/2000/svg">
<rect x="0.398693" y="0.600342" width="29.7412" height="29.7412" fill="white"/>
<path fill-rule="evenodd" clip-rule="evenodd" d="M20.5788 9.4263C22.7823 9.93761 23.6252 11.2261 24.6819 12.9995H20.5788V9.4263ZM7.70164 13.1484C8.13306 13.1484 8.44621 13.3566 8.44621 13.8433C8.44621 14.2538 8.11406 14.5867 7.70377 14.5879H3.20552C2.79426 14.5879 2.46095 14.9214 2.46095 15.3325C2.46095 15.7437 2.79426 16.077 3.20552 16.077H9.90665C10.3218 16.077 10.6541 16.4101 10.6541 16.8216C10.6541 17.2329 10.3208 17.5662 9.90956 17.5662H3.20552C2.79426 17.5662 2.46095 17.8995 2.46095 18.3107C2.46095 18.722 2.79426 19.0553 3.20552 19.0553H4.84357V21.289C4.84357 21.7003 5.17689 22.0336 5.58815 22.0336H7.08485C7.35165 23.3478 8.51291 24.3169 9.88183 24.3169C11.2508 24.3169 12.412 23.3478 12.6788 22.0336H20.2389C20.5057 23.3478 21.667 24.3169 23.0359 24.3169C24.4048 24.3169 25.5661 23.3478 25.8329 22.0336H27.1311C27.5423 22.0336 27.8756 21.7003 27.8756 21.289V16.8216C27.8756 14.6369 25.5713 14.4919 25.5692 14.4886H19.8343C19.423 14.4886 19.0897 14.1553 19.0897 13.744V9.27661H5.58815C5.17689 9.27661 4.84357 9.60992 4.84357 10.0212V11.6592H3.95009C3.53883 11.6592 3.20552 11.9925 3.20552 12.4038C3.20552 12.8151 3.53883 13.1484 3.95009 13.1484H7.70164ZM24.0011 20.4975C24.5342 21.0305 24.5342 21.8951 24.0011 22.4282C23.1437 23.2856 21.6709 22.6756 21.6709 21.4627C21.6709 20.2501 23.1437 19.6401 24.0011 20.4975ZM10.8471 20.4975C11.3801 21.0305 11.3801 21.8951 10.8471 22.4282C9.98964 23.2856 8.51679 22.6756 8.51679 21.4627C8.51679 20.2501 9.98964 19.6401 10.8471 20.4975Z" fill="#478CC8"/>
</svg>
