<svg width="31" height="31" viewBox="0 0 31 31" fill="none" xmlns="http://www.w3.org/2000/svg">
<rect x="0.398693" y="0.339111" width="29.7412" height="29.7412" fill="white"/>
<path d="M21.9213 6.34741H8.95165C8.77966 6.34741 8.61472 6.41573 8.49311 6.53735C8.37149 6.65896 8.30317 6.82391 8.30317 6.99589V25.1534C8.30275 25.2761 8.33716 25.3964 8.4024 25.5003C8.46764 25.6043 8.56103 25.6876 8.67173 25.7405C8.78242 25.7935 8.90588 25.814 9.02774 25.7996C9.14961 25.7852 9.26489 25.7365 9.36019 25.6592L15.4365 20.7956L21.5192 25.6592C21.6333 25.7507 21.775 25.801 21.9213 25.8018C22.0181 25.8034 22.1139 25.7812 22.2001 25.737C22.3105 25.6844 22.4037 25.6018 22.4691 25.4985C22.5345 25.3952 22.5694 25.2756 22.5698 25.1534V6.99589C22.5698 6.82391 22.5014 6.65896 22.3798 6.53735C22.2582 6.41573 22.0933 6.34741 21.9213 6.34741Z" fill="#478CC8"/>
</svg>
