<svg width="31" height="30" viewBox="0 0 31 30" fill="none" xmlns="http://www.w3.org/2000/svg">
<rect x="0.398693" y="0.0778809" width="29.7412" height="29.7412" fill="white"/>
<path d="M22.5205 7.6974C20.5836 5.76054 18.0085 4.69385 15.2693 4.69385C12.5302 4.69385 9.95504 5.76054 8.01814 7.6974C6.08132 9.63426 5.01463 12.2094 5.01463 14.9486C5.01463 17.6877 6.08132 20.2629 8.01814 22.1997C9.95504 24.1366 12.5302 25.2033 15.2693 25.2033C18.0085 25.2033 20.5836 24.1366 22.5205 22.1997C24.4574 20.2629 25.5241 17.6877 25.5241 14.9486C25.5241 12.2094 24.4574 9.63426 22.5205 7.6974ZM15.2693 24.0016C12.5907 24.0016 10.1806 22.8318 8.52158 20.9768C9.55006 18.2502 12.1828 16.3105 15.2693 16.3105C13.2782 16.3105 11.6642 14.6964 11.6642 12.7053C11.6642 10.7142 13.2782 9.10017 15.2693 9.10017C17.2604 9.10017 18.8745 10.7142 18.8745 12.7053C18.8745 14.6964 17.2604 16.3105 15.2693 16.3105C18.3559 16.3105 20.9886 18.2502 22.0171 20.9768C20.3581 22.8318 17.9479 24.0016 15.2693 24.0016Z" fill="#478CC8"/>
</svg>
