<svg width="31" height="31" viewBox="0 0 31 31" fill="none" xmlns="http://www.w3.org/2000/svg">
<rect x="0.398693" y="0.945801" width="29.7412" height="29.7412" fill="white"/>
<path d="M29.8838 16.8378L25.7312 12.519C26.7989 11.2497 27.3839 9.65277 27.3839 7.99028C27.3839 4.10601 24.2237 0.945801 20.3394 0.945801C16.4552 0.945801 13.295 4.10601 13.295 7.99028C13.295 11.8745 16.4552 15.0347 20.3394 15.0347C21.7977 15.0347 23.1873 14.5949 24.3753 13.76L28.5594 18.1117C28.7343 18.2933 28.9695 18.3934 29.2216 18.3934C29.4602 18.3934 29.6865 18.3025 29.8584 18.1371C30.2235 17.7858 30.2351 17.2032 29.8838 16.8378ZM20.3394 2.78349C23.2105 2.78349 25.5462 5.11919 25.5462 7.99028C25.5462 10.8614 23.2105 13.1971 20.3394 13.1971C17.4684 13.1971 15.1327 10.8614 15.1327 7.99028C15.1327 5.11919 17.4684 2.78349 20.3394 2.78349Z" fill="#478CC8"/>
<path fill-rule="evenodd" clip-rule="evenodd" d="M16.2043 18.5071C17.8758 18.895 18.5151 19.8723 19.3167 21.2175H16.2043V18.5071ZM6.43629 21.3305C6.76354 21.3305 7.00108 21.4885 7.00108 21.8576C7.00108 22.169 6.74913 22.4215 6.4379 22.4224H3.02574C2.71378 22.4224 2.46095 22.6754 2.46095 22.9872C2.46095 23.2992 2.71378 23.552 3.02574 23.552H8.1089C8.42381 23.552 8.67591 23.8047 8.67591 24.1168C8.67591 24.4288 8.42307 24.6816 8.11111 24.6816H3.02574C2.71378 24.6816 2.46095 24.9344 2.46095 25.2464C2.46095 25.5584 2.71378 25.8112 3.02574 25.8112H4.26829V27.5056C4.26829 27.8176 4.52113 28.0704 4.83309 28.0704H5.96842C6.1708 29.0673 7.05168 29.8024 8.09008 29.8024C9.12848 29.8024 10.0094 29.0673 10.2117 28.0704H15.9465C16.1489 29.0673 17.0297 29.8024 18.0681 29.8024C19.1065 29.8024 19.9874 29.0673 20.1898 28.0704H21.1745C21.4865 28.0704 21.7393 27.8176 21.7393 27.5056V24.1168C21.7393 22.4596 19.9914 22.3496 19.9898 22.3471H15.6395C15.3276 22.3471 15.0747 22.0943 15.0747 21.7823V18.3936H4.83309C4.52113 18.3936 4.26829 18.6464 4.26829 18.9584V20.2009H3.59054C3.27858 20.2009 3.02574 20.4537 3.02574 20.7657C3.02574 21.0777 3.27858 21.3305 3.59054 21.3305H6.43629ZM18.8003 26.9052C19.2046 27.3095 19.2046 27.9654 18.8003 28.3697C18.1499 29.0201 17.0327 28.5574 17.0327 27.6374C17.0327 26.7175 18.1499 26.2548 18.8003 26.9052ZM8.82225 26.9052C9.22658 27.3095 9.22658 27.9654 8.82225 28.3697C8.17186 29.0201 7.05462 28.5574 7.05462 27.6374C7.05462 26.7175 8.17186 26.2548 8.82225 26.9052Z" fill="#478CC8"/>
</svg>
