<svg width="31" height="31" viewBox="0 0 31 31" fill="none" xmlns="http://www.w3.org/2000/svg">
<rect x="0.398693" y="0.468262" width="29.7412" height="29.7412" fill="white"/>
<path d="M29.8838 16.3603L25.7312 12.0414C26.7989 10.7722 27.3839 9.17523 27.3839 7.51274C27.3839 3.62847 24.2237 0.468262 20.3394 0.468262C16.4552 0.468262 13.295 3.62847 13.295 7.51274C13.295 11.397 16.4552 14.5572 20.3394 14.5572C21.7977 14.5572 23.1873 14.1174 24.3753 13.2825L28.5594 17.6341C28.7343 17.8157 28.9695 17.9159 29.2216 17.9159C29.4602 17.9159 29.6865 17.8249 29.8584 17.6595C30.2235 17.3082 30.2351 16.7257 29.8838 16.3603ZM20.3394 2.30595C23.2105 2.30595 25.5462 4.64165 25.5462 7.51274C25.5462 10.3838 23.2105 12.7195 20.3394 12.7195C17.4684 12.7195 15.1327 10.3838 15.1327 7.51274C15.1327 4.64165 17.4684 2.30595 20.3394 2.30595Z" fill="#478CC8"/>
<path d="M11.4314 17.4973V17.4937L14.0869 18.6831L16.7531 17.6835L9.65751 15.0227L2.56196 17.6835L9.65751 20.3444L12.313 19.3483L9.65751 18.2538V18.2512L11.4314 17.4973Z" fill="#478CC8"/>
<path d="M2.56196 18.5706V26.553L9.21404 29.048V21.0655L2.56196 18.5706ZM6.10974 26.5823L4.33585 25.9171V24.9707L6.10974 25.6359V26.5823Z" fill="#478CC8"/>
<path d="M14.0923 19.5684V21.7902L12.3184 22.4554V20.2336L10.101 21.0655V29.048L16.7531 26.553V18.5706L14.0923 19.5684Z" fill="#478CC8"/>
</svg>
