<svg width="31" height="31" viewBox="0 0 31 31" fill="none" xmlns="http://www.w3.org/2000/svg">
<rect x="0.398689" y="0.81665" width="29.7412" height="29.7412" fill="white"/>
<path d="M19.1341 13.7769C19.1349 14.0815 19.1369 15.0552 19.1384 15.3467C19.4194 15.3453 19.7195 15.3441 19.8961 15.3441C20.3365 15.3441 20.7085 14.9852 20.7085 14.5605C20.7085 14.1357 20.3365 13.7769 19.8961 13.7769H19.1341Z" fill="#64B82A"/>
<path d="M19.8076 7.87256H6.72128C5.18461 7.87256 3.93443 9.12274 3.93443 10.6594V16.0201L11.4292 23.5148H24.5155C26.0522 23.5148 27.3023 22.2646 27.3023 20.728V15.3674L19.8076 7.87256ZM22.0777 14.5605C22.0777 15.7476 21.099 16.7133 19.8961 16.7133C19.719 16.7133 19.4149 16.7146 19.132 16.7161V18.9797H17.7628L17.7606 12.4078H17.7628H19.8961C21.099 12.4077 22.0777 13.3735 22.0777 14.5605ZM16.303 12.4077V18.9796H14.9338V12.4077H16.303ZM9.80032 12.4016L11.2166 16.5013L12.5782 12.4016H14.0209L11.8363 18.9797H10.6242L8.35169 12.4016H9.80032Z" fill="#64B82A"/>
<path d="M27.3023 13.431V10.6594C27.3023 9.12274 26.0522 7.87256 24.5155 7.87256H21.7439L27.3023 13.431Z" fill="#64B82A"/>
<path d="M3.93443 17.9563V20.7279C3.93443 22.2645 5.18461 23.5147 6.72128 23.5147H9.49284L3.93443 17.9563Z" fill="#64B82A"/>
</svg>
