<svg width="31" height="30" viewBox="0 0 31 30" fill="none" xmlns="http://www.w3.org/2000/svg">
<rect x="0.398693" y="0.207031" width="29.7412" height="29.7412" fill="white"/>
<path d="M29.8838 16.0991L25.7312 11.7802C26.7989 10.511 27.3839 8.914 27.3839 7.25151C27.3839 3.36724 24.2237 0.207031 20.3394 0.207031C16.4552 0.207031 13.295 3.36724 13.295 7.25151C13.295 11.1358 16.4552 14.296 20.3394 14.296C21.7977 14.296 23.1873 13.8562 24.3753 13.0212L28.5594 17.3729C28.7343 17.5545 28.9695 17.6547 29.2216 17.6547C29.4602 17.6547 29.6865 17.5637 29.8584 17.3983C30.2235 17.047 30.2351 16.4645 29.8838 16.0991ZM20.3394 2.04472C23.2105 2.04472 25.5462 4.38042 25.5462 7.25151C25.5462 10.1226 23.2105 12.4583 20.3394 12.4583C17.4684 12.4583 15.1327 10.1226 15.1327 7.25151C15.1327 4.38042 17.4684 2.04472 20.3394 2.04472Z" fill="#478CC8"/>
<path fill-rule="evenodd" clip-rule="evenodd" d="M10.2091 12.6709C14.5164 12.6709 18.0083 16.1627 18.0083 20.4701C18.0083 24.7774 14.5164 28.2692 10.2091 28.2692C5.90173 28.2692 2.40992 24.7774 2.40992 20.4701C2.40992 16.1627 5.90173 12.6709 10.2091 12.6709ZM10.6379 25.0399V23.2605H9.29205V25.0399H10.6379ZM14.7789 25.0399V20.3661H14.1618V25.0399H14.7789ZM10.7872 18.8137H12.1167V17.4845H10.7872V18.8137ZM9.63094 18.8137V17.4845H8.30158V18.8137H9.63094ZM8.30158 21.2992H9.63094V19.9702H8.30158V21.2992ZM10.7872 21.2992H12.1167V19.9702H10.7872V21.2992ZM8.63929 25.0399V22.934C8.63929 22.7539 8.78531 22.6077 8.96564 22.6077H10.9644C11.1445 22.6077 11.2907 22.7539 11.2907 22.934V25.0399H13.5091V15.9002H6.90922V25.0399H8.63929ZM5.63923 20.3661V25.0399H6.25637V20.3661H5.63923Z" fill="#478CC8"/>
</svg>
