<svg width="22" height="22" viewBox="0 0 22 22" fill="none" xmlns="http://www.w3.org/2000/svg">
<path d="M17.3274 10.8872C16.832 10.8872 16.4316 11.2886 16.4316 11.783V18.9497C16.4316 19.4433 16.0303 19.8455 15.5359 19.8455H2.99414C2.49958 19.8455 2.09836 19.4433 2.09836 18.9497V6.40799C2.09836 5.91442 2.49958 5.51221 2.99414 5.51221H10.1609C10.6562 5.51221 11.0566 5.11082 11.0566 4.61643C11.0566 4.12188 10.6562 3.72049 10.1609 3.72049H2.99414C1.51244 3.72049 0.306641 4.92629 0.306641 6.40799V18.9497C0.306641 20.4314 1.51244 21.6372 2.99414 21.6372H15.5359C17.0176 21.6372 18.2234 20.4314 18.2234 18.9497V11.783C18.2234 11.2876 17.8228 10.8872 17.3274 10.8872Z" fill="#478CC8"/>
<path d="M8.70566 10.0712C8.643 10.1339 8.60084 10.2136 8.58296 10.2996L7.94964 13.4673C7.92011 13.6142 7.9667 13.7656 8.07233 13.8722C8.15747 13.9573 8.27212 14.0029 8.38957 14.0029C8.41811 14.0029 8.4478 14.0003 8.47733 13.994L11.6441 13.3607C11.7319 13.3427 11.8116 13.3007 11.8734 13.2379L18.9613 6.15004L15.7945 2.9834L8.70566 10.0712Z" fill="#478CC8"/>
<path d="M21.1507 0.793012C20.2774 -0.0804587 18.8565 -0.0804587 17.9839 0.793012L16.7441 2.03277L19.9109 5.19957L21.1507 3.95965C21.5736 3.53776 21.8065 2.97513 21.8065 2.37674C21.8065 1.77835 21.5736 1.21572 21.1507 0.793012Z" fill="#478CC8"/>
</svg>
