<svg width="15" height="20" viewBox="0 0 15 20" fill="none" xmlns="http://www.w3.org/2000/svg">
<path d="M13.5524 19.1894C13.4095 19.1885 13.2711 19.1394 13.1597 19.05L7.21826 14.2994L1.2832 19.05C1.19011 19.1255 1.07751 19.1731 0.958473 19.1871C0.839437 19.2012 0.718853 19.1812 0.610731 19.1295C0.502609 19.0777 0.411386 18.9964 0.347662 18.8949C0.283938 18.7933 0.250327 18.6758 0.250736 18.5559V0.820423C0.250736 0.652432 0.31747 0.491321 0.436258 0.372534C0.555046 0.253746 0.716157 0.187012 0.884148 0.187012H13.5524C13.7204 0.187012 13.8815 0.253746 14.0003 0.372534C14.1191 0.491321 14.1858 0.652432 14.1858 0.820423V18.5559C14.1855 18.6753 14.1514 18.7922 14.0875 18.8931C14.0236 18.9939 13.9325 19.0747 13.8247 19.126C13.7405 19.1692 13.647 19.1909 13.5524 19.1894ZM7.21826 12.8552C7.36331 12.8546 7.50417 12.9038 7.61731 12.9946L12.919 17.2385V1.45384H1.51756V17.2385L6.82555 12.9946C6.93699 12.9052 7.07539 12.8561 7.21826 12.8552Z" fill="#478CC8"/>
<path d="M1.12207 17.7082V1.41966V0.768066L13.61 1.41966V18.3597L7.20318 13.6903L1.12207 17.7082Z" fill="#478CC8"/>
</svg>
