<svg width="21" height="21" viewBox="0 0 21 21" fill="none" xmlns="http://www.w3.org/2000/svg">
<path fill-rule="evenodd" clip-rule="evenodd" d="M10.1642 0.171631C15.7355 0.171631 20.2518 4.68799 20.2518 10.2592C20.2518 15.8304 15.7355 20.3468 10.1642 20.3468C4.59302 20.3468 0.0766602 15.8304 0.0766602 10.2592C0.0766602 4.68799 4.59302 0.171631 10.1642 0.171631ZM10.7189 16.1699V13.8684H8.97813V16.1699H10.7189ZM16.075 16.1699V10.1248H15.2768V16.1699H16.075ZM10.912 8.11679H12.6316V6.3976H10.912V8.11679ZM9.41646 8.11679V6.3976H7.69704V8.11679H9.41646ZM7.69704 11.3317H9.41646V9.6127H7.69704V11.3317ZM10.912 11.3317H12.6316V9.6127H10.912V11.3317ZM8.13384 16.1699V13.4461C8.13384 13.2131 8.32271 13.0241 8.55595 13.0241H11.1411C11.3741 13.0241 11.5632 13.2132 11.5632 13.4461V16.1699H14.4325V4.34852H5.89613V16.1699H8.13384ZM4.25351 10.1248V16.1699H5.05173V10.1248H4.25351Z" fill="#478CC8"/>
</svg>
