<svg width="10" height="17" viewBox="0 0 10 17" fill="none" xmlns="http://www.w3.org/2000/svg">
<path d="M0.804612 9.44719L7.80427 16.4467C7.96616 16.6087 8.18228 16.698 8.41271 16.698C8.64315 16.698 8.85926 16.6087 9.02116 16.4467L9.53663 15.9314C9.87206 15.5956 9.87206 15.0498 9.53663 14.7145L3.65885 8.8367L9.54315 2.95239C9.70505 2.79037 9.79443 2.57439 9.79443 2.34408C9.79443 2.11351 9.70505 1.89753 9.54315 1.73538L9.02768 1.22016C8.86566 1.05814 8.64967 0.968879 8.41923 0.968879C8.1888 0.968879 7.97269 1.05814 7.81079 1.22016L0.804612 8.22608C0.642335 8.38861 0.553204 8.60562 0.553715 8.83631C0.553204 9.0679 0.642335 9.28478 0.804612 9.44719Z" fill="#213F50"/>
</svg>
