<svg width="84" height="107" viewBox="0 0 84 107" fill="none" xmlns="http://www.w3.org/2000/svg">
<path d="M42.0754 42.3012C53.7014 42.3012 63.1596 32.843 63.1596 21.217C63.1596 9.59098 53.7014 0.132812 42.0754 0.132812C30.4494 0.132812 20.9912 9.59098 20.9912 21.217C20.9912 32.843 30.4494 42.3012 42.0754 42.3012Z" fill="#E6F3FF"/>
<path d="M70.3675 52.5188C70.3585 52.5159 70.3412 52.5094 70.3322 52.5073C67.587 51.8367 59.1804 50.6607 59.1804 50.6607C58.2314 50.3686 57.2172 50.8711 56.8758 51.8076L44.222 86.5266C43.4921 88.5293 40.6594 88.5293 39.9295 86.5266L27.2757 51.8076C27.0001 51.0514 26.2863 50.5772 25.5215 50.5772C25.3402 50.5772 16.6965 51.7892 13.8189 52.5048C5.95547 54.46 0.995605 62.1925 0.995605 70.2508V99.1394C0.995605 103.469 4.50532 106.978 8.83454 106.978H75.3097C79.639 106.978 83.1487 103.469 83.1487 99.1394V70.1548C83.1483 62.1313 77.9942 55.0108 70.3675 52.5188Z" fill="#E6F3FF"/>
<path d="M46.8473 49.9987C46.3422 49.4483 45.604 49.1717 44.8571 49.1717H39.2864C38.5396 49.1717 37.801 49.4487 37.2963 49.9987C36.5145 50.8506 36.4009 52.0813 36.956 53.0429L39.934 57.5323L38.5399 69.2925L41.2852 76.5954C41.5528 77.33 42.5914 77.33 42.8591 76.5954L45.6043 69.2925L44.2103 57.5323L47.1883 53.0429C47.7427 52.0813 47.629 50.8506 46.8473 49.9987Z" fill="#E6F3FF"/>
</svg>
