<svg width="13" height="44" viewBox="0 0 13 44" fill="none" xmlns="http://www.w3.org/2000/svg">
<path d="M6.65729 0.9021C3.33418 0.9021 0.629883 3.62515 0.629883 6.97303C0.629883 11.73 6.09071 16.6417 6.3231 16.8479C6.41887 16.933 6.53808 16.9752 6.65729 16.9752C6.7765 16.9752 6.8957 16.933 6.99147 16.8486C7.22386 16.6417 12.6847 11.73 12.6847 6.97303C12.6847 3.62515 9.9804 0.9021 6.65729 0.9021ZM6.65729 10.2781C4.81089 10.2781 3.30873 8.7759 3.30873 6.9295C3.30873 5.08311 4.81089 3.58095 6.65729 3.58095C8.50368 3.58095 10.0058 5.08311 10.0058 6.9295C10.0058 8.7759 8.50368 10.2781 6.65729 10.2781Z" fill="#478CC8"/>
<path d="M6.65723 19.2219L6.65723 33.3441" stroke="#213F50" stroke-linecap="round" stroke-dasharray="2 2"/>
<ellipse cx="6.65707" cy="39.812" rx="4.50815" ry="4.11401" fill="#E26262"/>
</svg>
