<svg width="13" height="44" viewBox="0 0 13 44" fill="none" xmlns="http://www.w3.org/2000/svg">
<path d="M6.97272 0.342834C3.64961 0.342834 0.945312 3.06588 0.945312 6.41377C0.945312 11.1707 6.40614 16.0824 6.63853 16.2887C6.7343 16.3737 6.85351 16.4159 6.97272 16.4159C7.09193 16.4159 7.21113 16.3737 7.3069 16.2893C7.53929 16.0824 13.0001 11.1707 13.0001 6.41377C13.0001 3.06588 10.2958 0.342834 6.97272 0.342834ZM6.97272 9.7188C5.12632 9.7188 3.62416 8.21663 3.62416 6.37024C3.62416 4.52384 5.12632 3.02168 6.97272 3.02168C8.81911 3.02168 10.3213 4.52384 10.3213 6.37024C10.3213 8.21663 8.81911 9.7188 6.97272 9.7188Z" fill="#888888"/>
<path d="M6.97266 18.6627L6.97266 32.7849" stroke="#383838" stroke-linecap="round" stroke-dasharray="2 2"/>
<ellipse cx="6.9725" cy="39.2527" rx="4.50815" ry="4.11401" fill="#A2A2A2"/>
</svg>
