<svg width="13" height="81" viewBox="0 0 13 81" fill="none" xmlns="http://www.w3.org/2000/svg">
<path d="M6.77692 0.117432C3.45381 0.117432 0.749512 2.84048 0.749512 6.18837C0.749512 10.9453 6.21034 15.857 6.44273 16.0633C6.5385 16.1483 6.65771 16.1905 6.77692 16.1905C6.89613 16.1905 7.01533 16.1483 7.1111 16.0639C7.34349 15.857 12.8043 10.9453 12.8043 6.18837C12.8043 2.84048 10.1 0.117432 6.77692 0.117432ZM6.77692 9.49339C4.93052 9.49339 3.42836 7.99123 3.42836 6.14484C3.42836 4.29844 4.93052 2.79628 6.77692 2.79628C8.62331 2.79628 10.1255 4.29844 10.1255 6.14484C10.1255 7.99123 8.62331 9.49339 6.77692 9.49339Z" fill="#478CC8"/>
<ellipse cx="6.77695" cy="76.1772" rx="4.50815" ry="4.11401" fill="#E26262"/>
<path d="M6.7771 17.5256L6.7771 70.8335" stroke="#213F50" stroke-linecap="round" stroke-dasharray="2 2"/>
</svg>
