<svg width="13" height="20" viewBox="0 0 13 20" fill="none" xmlns="http://www.w3.org/2000/svg">
<path d="M6.7063 0.117432C3.38319 0.117432 0.678894 2.84048 0.678894 6.18837C0.678894 10.9453 6.13972 15.857 6.37211 16.0633C6.46788 16.1483 6.58709 16.1905 6.7063 16.1905C6.82551 16.1905 6.94472 16.1483 7.04048 16.0639C7.27287 15.857 12.7337 10.9453 12.7337 6.18837C12.7337 2.84048 10.0294 0.117432 6.7063 0.117432ZM6.7063 9.49339C4.8599 9.49339 3.35774 7.99123 3.35774 6.14484C3.35774 4.29844 4.8599 2.79628 6.7063 2.79628C8.55269 2.79628 10.0549 4.29844 10.0549 6.14484C10.0549 7.99123 8.55269 9.49339 6.7063 9.49339Z" fill="#478CC8"/>
<ellipse cx="6.70627" cy="18.6332" rx="3.52536" ry="1.27643" fill="#478CC8"/>
</svg>
