<svg width="20" height="20" viewBox="0 0 20 20" fill="none" xmlns="http://www.w3.org/2000/svg">
<g id="Frame 2">
<path id="Vector" d="M13.3235 7.51135C10.0201 7.51135 7.3325 10.1989 7.3325 13.5023C7.3325 16.8058 10.0201 19.4933 13.3235 19.4933C16.6269 19.4933 19.3145 16.8058 19.3145 13.5023C19.3145 10.1989 16.6269 7.51135 13.3235 7.51135ZM13.3235 12.9577C14.2245 12.9577 14.9574 13.6906 14.9574 14.5916C14.9574 15.3007 14.5007 15.8996 13.8681 16.1252V17.3148H12.7788V16.1252C12.1463 15.8996 11.6896 15.3007 11.6896 14.5916H12.7788C12.7788 14.8921 13.023 15.1362 13.3235 15.1362C13.624 15.1362 13.8681 14.8921 13.8681 14.5916C13.8681 14.2911 13.624 14.047 13.3235 14.047C12.4225 14.047 11.6896 13.314 11.6896 12.4131C11.6896 11.7039 12.1463 11.1051 12.7788 10.8795V9.68989H13.8681V10.8795C14.5007 11.1051 14.9574 11.7039 14.9574 12.4131H13.8681C13.8681 12.1126 13.624 11.8684 13.3235 11.8684C13.023 11.8684 12.7788 12.1126 12.7788 12.4131C12.7788 12.7136 13.023 12.9577 13.3235 12.9577Z" fill="#478CC8"/>
<path id="Vector_2" d="M6.78787 7.5113C10.1472 7.5113 12.7788 6.07579 12.7788 4.2435C12.7788 2.4112 10.1472 0.903076 6.78787 0.903076C3.42856 0.903076 0.724274 2.4112 0.724274 4.2435C0.724274 6.07579 3.42856 7.5113 6.78787 7.5113Z" fill="#478CC8"/>
<path id="Vector_3" d="M0.724274 13.1595V14.047C0.724274 15.8793 3.42856 17.3148 6.78787 17.3148C6.97842 17.3148 7.16305 17.2972 7.35066 17.2881C6.93289 16.6312 6.62132 15.9023 6.43785 15.1231C4.0086 15.0561 1.8993 14.3096 0.724274 13.1595Z" fill="#478CC8"/>
<path id="Vector_4" d="M6.26941 14.0192C6.25692 13.8479 6.24323 13.6768 6.24323 13.5023C6.24323 12.9346 6.31763 12.3851 6.44449 11.8556C4.01223 11.7897 1.90036 11.0428 0.724274 9.89172V10.7792C0.724274 12.5142 3.16649 13.8778 6.26941 14.0192Z" fill="#478CC8"/>
<path id="Vector_5" d="M6.78787 10.7791C6.78845 10.7791 6.78892 10.7791 6.78954 10.7791C7.14874 9.92057 7.6709 9.14668 8.31934 8.49828C7.82747 8.56044 7.31914 8.6006 6.78787 8.6006C4.20205 8.6006 1.95609 7.8295 0.724274 6.6239V7.51133C0.724274 9.34362 3.42856 10.7791 6.78787 10.7791Z" fill="#478CC8"/>
</g>
</svg>
