<svg width="19" height="18" viewBox="0 0 19 18" fill="none" xmlns="http://www.w3.org/2000/svg">
<path d="M9.53284 0.624756C4.81618 0.624756 0.979202 4.46173 0.979202 9.1784C0.979202 13.8951 4.81618 17.732 9.53284 17.732C14.2495 17.732 18.0865 13.8951 18.0865 9.1784C18.0865 4.46173 14.2495 0.624756 9.53284 0.624756ZM13.6008 13.6027C13.4618 13.7417 13.2794 13.8117 13.0969 13.8117C12.9144 13.8117 12.7318 13.7417 12.593 13.6027L9.02891 10.0388C8.89487 9.90552 8.82008 9.72436 8.82008 9.53484V4.90158C8.82008 4.50741 9.13933 4.18882 9.53284 4.18882C9.92636 4.18882 10.2456 4.50741 10.2456 4.90158V9.23974L13.6008 12.5948C13.8795 12.8736 13.8795 13.324 13.6008 13.6027Z" fill="#478CC8"/>
</svg>
