<svg width="267" height="171" viewBox="0 0 267 171" fill="none" xmlns="http://www.w3.org/2000/svg">
<circle cx="132.426" cy="85.3712" r="85.2948" fill="#EEF7FF"/>
<path d="M2.09022 121.755V114.647L2.51566 113.507L5.30015 112.663V108.529C5.55328 105.772 6.0933 100.091 6.22831 99.4158C6.36332 98.7408 7.46586 95.4781 8.00026 93.9312L21.9227 89.881C22.5134 88.6716 23.7284 86.0165 23.8634 85.0715C24.0322 83.8902 26.0573 79.6713 26.901 79.165C27.5761 78.76 26.2823 76.0711 25.551 74.7773C25.6635 73.4272 25.9222 70.5584 26.0573 69.8833C26.1923 69.2083 28.7574 68.252 30.023 67.8583L33.145 64.1456L44.958 54.189L74.0243 49.0909L92.7632 49.7954L104.88 50.7414H106.867C108.336 67.4275 111.7 101.225 113.4 102.926C115.101 104.628 121.222 109.743 124.07 112.088L123.074 118.343L121.795 121.755L118.525 122.893H114.26C113.578 122.893 111.985 123.746 111.275 124.172C110.658 124.314 108.915 124.513 106.867 124.172C104.82 123.831 100.802 121.281 99.0482 120.049L64.5016 122.893L62.5112 127.158L58.6727 132.133C57.5354 132.465 54.6636 133.129 52.2752 133.129C49.2897 133.129 47.7259 124.456 47.1572 122.893C46.5885 121.329 38.2007 122.893 37.2055 122.893H7.49257C6.81017 122.893 3.60667 122.134 2.09022 121.755Z" fill="white"/>
<path d="M118.737 103.923H110.328C109.822 103.943 109.326 104.067 108.87 104.287C108.413 104.507 108.007 104.817 107.676 105.2H104.295C103.348 109.334 103.737 113.61 103.765 117.82C103.765 118.573 103.466 119.295 102.933 119.827C102.4 120.359 101.678 120.658 100.924 120.658C99.7593 120.658 98.5945 120.725 97.4297 120.753C98.3767 123.667 100.119 125.616 102.089 125.616H110.498C111.005 125.592 111.501 125.466 111.957 125.245C112.413 125.024 112.819 124.712 113.15 124.329H118.737C121.758 124.329 124.211 119.76 124.211 114.121C124.211 108.483 121.758 103.923 118.737 103.923ZM110.498 123.657C108.197 123.657 106.331 119.958 106.331 115.408C106.331 110.857 108.225 107.158 110.498 107.158C112.771 107.158 114.665 110.848 114.665 115.408C114.665 119.968 112.8 123.657 110.498 123.657ZM118.737 122.371C117.449 122.371 116.294 121.216 115.536 119.4C115.827 118.089 115.973 116.75 115.972 115.408C115.984 113.57 115.699 111.743 115.129 109.996C115.849 107.537 117.194 105.872 118.737 105.872C121.038 105.872 122.904 109.571 122.904 114.121C122.904 118.672 121.038 122.371 118.737 122.371Z" fill="#478CC8"/>
<path d="M98.0831 50.1973C98.7833 50.7269 99.3721 51.3891 99.8161 52.1461L104.797 51.5028V101.898H101.009V102.381C101.011 102.943 100.957 103.504 100.848 104.055H106.975V49.0431L98.0831 50.1973Z" fill="#478CC8"/>
<path d="M252.662 99.2023L99.7309 102.466V106.326L104.295 107.158L105.081 114.017L252.662 111.056V99.2023Z" fill="#478CC8"/>
<path d="M252.662 102.192H104.229V114.121H252.662V102.192Z" fill="#478CC8"/>
<path d="M22.8058 78.6825H21.0349V87.7834H22.8058V78.6825Z" fill="#478CC8"/>
<path d="M21.0349 78.6825L19.8985 79.8272V87.7834H21.0349V78.6825Z" fill="#478CC8"/>
<path d="M25.3154 74.7755L21.1959 88.7674H22.8342L27.2283 74.7755H25.3154Z" fill="#478CC8"/>
<path d="M61.917 104.055H56.3581C53.7138 107.587 50.838 110.94 47.7498 114.093V124.755H53.0341C52.8172 123.607 52.7094 122.441 52.7121 121.273C52.7121 115.871 54.8713 111.491 57.5229 111.491C60.1745 111.491 62.3337 115.871 62.3337 121.273C62.3348 122.441 62.2302 123.606 62.0212 124.755H65.2694L67.3718 121.273V112.938C65.0895 110.288 63.2478 107.289 61.917 104.055Z" fill="#478CC8"/>
<path d="M10.6747 121.765C11.6217 126.722 14.1312 130.279 17.1048 130.279C20.0784 130.279 22.6069 126.722 23.5444 121.765H10.6747Z" fill="#478CC8"/>
<path d="M6.31848 121.765C7.26548 126.722 9.77504 130.279 12.7486 130.279H17.1143V127.29C18.1518 125.596 18.8587 123.722 19.1977 121.765H6.31848Z" fill="#478CC8"/>
<path d="M29.1223 85.059L29.2265 84.5859L27.9291 86.1564L28.3552 85.759L29.1223 85.059Z" fill="#478CC8"/>
<path d="M99.7308 108.294L85.5447 108.824L87.2588 64.9369L88.7835 106.118L99.7308 108.294Z" fill="#478CC8"/>
<path d="M31.1489 75.3148L27.7965 75.5324L26.1582 83.3751L14.1502 94.3964H18.9515L26.2718 87.6796L25.9309 87.443L29.9178 81.2465L31.1489 75.3148Z" fill="#478CC8"/>
<path d="M102.704 105.115V50.7364L90.8669 47.5861H85.6016C84.3415 47.1649 83.0277 46.926 81.6999 46.8766C81.4905 46.8707 81.281 46.8865 81.0749 46.9239C71.387 47.1604 47.2763 51.9757 47.2763 51.9757C39.8368 54.5541 33.6557 59.8599 29.9841 66.8191C31.1584 66.6015 32.5599 66.346 34.1698 66.0906C37.475 60.9905 42.3813 57.1307 48.1192 55.1166C50.4488 54.653 72.3246 50.3769 81.1222 50.1593L81.2548 50.2539L81.6431 50.1215C82.6621 50.1715 83.6692 50.3626 84.6356 50.6891L85.0996 50.831H90.4218L99.4373 53.2245V108.369H102.761V118.302L68.6218 121.216C68.5082 109.211 63.5553 103.327 63.328 103.062L62.381 101.927H60.8658C59.1273 101.904 57.4027 102.239 55.7995 102.911C54.1962 103.583 52.7488 104.578 51.5473 105.834C47.371 110.129 46.2157 116.978 45.8653 120.828C41.4139 121.333 36.9354 121.561 32.4557 121.51C21.3285 121.51 8.97007 120.564 3.46799 120.081V114.045L3.81838 113.771L5.16312 112.749C4.10082 112.136 2.98512 111.62 1.82967 111.207L0.257645 112.437V123.042C0.257645 123.042 17.3605 124.754 32.4557 124.754C37.9873 124.867 43.5179 124.484 48.981 123.61C48.981 123.61 48.6306 105.276 60.8658 105.181C60.8658 105.181 66.2259 111.377 65.2694 124.754L105.991 121.273V105.115H102.704Z" fill="#478CC8"/>
<path d="M49.8806 74.1132L41.3576 74.6619L38.1378 85.9481L41.3955 85.8913L49.8806 74.1132Z" fill="#478CC8"/>
<path d="M27.7207 86.355C30.2966 86.1941 33.0524 86.0901 35.7987 86.0049L39.0848 74.8038L36.8783 74.9457C34.7286 77.7176 30.3155 83.3182 27.7207 86.355Z" fill="#478CC8"/>
<path d="M33.8478 75.1443L26.2718 75.6268L22.9857 86.7427C24.1221 86.6292 25.3343 86.5251 26.6127 86.4305L33.8478 75.1443Z" fill="#478CC8"/>
<path d="M59.6821 70.9628L58.6688 73.555L56.3581 73.7063L46.0263 85.8535C51.0075 85.8535 54.5493 85.8535 54.5493 85.8535C59.9567 86.1278 60.8469 83.8006 60.8469 83.8006L63.8394 70.556L59.6821 70.9628Z" fill="#478CC8"/>
<path d="M54.483 73.782L52.93 73.9239L42.8728 85.8724H44.7194L54.483 73.782Z" fill="#478CC8"/>
<path d="M58.3563 64.1703V66.3367H59.1802L57.1536 71.4737L26.1582 73.4604L27.6544 69.4965C37.754 67.4004 48.0411 66.3385 58.3563 66.3272V64.1703C47.4892 64.1584 36.6537 65.3386 26.0445 67.6895L22.9857 75.8444L58.6688 73.555L62.3337 64.227C60.9889 64.1892 59.6631 64.1703 58.3563 64.1703Z" fill="#478CC8"/>
<path d="M32.6736 112.153C32.6736 112.153 32.6736 109.079 34.4634 107.243C37.4086 105.455 42.5792 103.327 43.9334 104.339C45.2876 105.351 44.1228 110.28 43.1758 110.469C42.2288 110.659 37.5317 111.378 32.6736 112.153Z" fill="#478CC8"/>
<path d="M76.1978 95.5315C76.1978 95.5315 42.1815 99.1927 33.4028 106.903C33.4028 106.903 37.759 97.5277 61.5572 94.6044C66.4568 94.3489 71.3697 94.66 76.1978 95.5315Z" fill="#478CC8"/>
<path d="M115.972 99.7129L111.426 51.4176L106.966 49.0431V104.065L252.662 99.2021L115.972 99.7129Z" fill="#478CC8"/>
<path d="M71.709 85.163L67.6559 90.0351L68.4892 90.7257L73.1201 85.163H71.709Z" fill="#478CC8"/>
<path d="M66.0649 87.6794V91.8892C66.0648 91.9137 66.0698 91.9378 66.0794 91.9603C66.0891 91.9827 66.1032 92.003 66.1209 92.0198C66.1386 92.0366 66.1596 92.0497 66.1825 92.0581C66.2054 92.0666 66.2299 92.0703 66.2543 92.069C66.4678 92.0526 66.6798 92.021 66.8888 91.9744C67.4368 91.8499 67.9192 91.5271 68.2429 91.0681C68.5666 90.6092 68.7087 90.0467 68.6416 89.4893C68.5745 88.9319 68.303 88.4191 67.8796 88.0499C67.4562 87.6807 66.9109 87.4813 66.349 87.4902H66.2543C66.2041 87.4902 66.1559 87.5101 66.1204 87.5456C66.0848 87.5811 66.0649 87.6292 66.0649 87.6794Z" fill="#478CC8"/>
<path d="M91.5298 59.2791C91.5298 59.2791 91.1036 52.9028 86.2266 51.9284C81.3495 50.954 76.4819 55.3909 74.3133 59.2791C74.3133 59.2791 85.2512 46.5171 91.5298 59.2791Z" fill="#478CC8"/>
<path d="M57.0779 108.558H52.6838C48.8958 108.558 45.8653 114.235 45.8653 121.273C45.8653 128.312 48.9242 133.988 52.6838 133.988H57.0779C60.8659 133.988 63.8963 128.312 63.8963 121.273C63.8963 114.235 60.8659 108.558 57.0779 108.558ZM57.523 131.074C54.8713 131.074 52.7122 126.694 52.7122 121.292C52.7122 115.89 54.8713 111.491 57.523 111.491C60.1746 111.491 62.3337 115.871 62.3337 121.273C62.3337 126.675 60.184 131.074 57.523 131.074Z" fill="#478CC8"/>
<path d="M58.6688 73.5549H67.3718V66.3177L62.3337 64.2269L58.6688 73.5549Z" fill="#478CC8"/>
<path d="M97.5243 112.891L65.2315 114.689L64.294 113.336L93.85 111.056L97.5243 112.891Z" fill="#478CC8"/>
<path d="M74.3133 75.1916V84.3965H71.728V75.1916H74.3133ZM75.1277 74.3875H70.9135V85.2007H75.1277V74.3875Z" fill="#478CC8"/>
<path d="M68.4987 73.4509L66.0649 85.8157L78.1202 85.2007V74.3875L68.4987 73.4509ZM75.1277 85.2007H70.9135L69.5404 84.5101V75.0497L70.9135 74.3591H75.1277V85.2007Z" fill="#478CC8"/>
<path d="M70.44 75.1537V84.4344L70.0139 84.2168V75.3713L70.44 75.1537ZM70.9135 74.3875L69.5404 75.0781V84.5385L70.9135 85.2291V74.3875Z" fill="#478CC8"/>
<path d="M22.9857 86.7428C17.3049 88.0784 11.8228 90.1488 6.67832 92.9016L33.8194 92.2866C41.7918 89.1214 50.1468 87.0188 58.6688 86.0333C58.6688 86.0333 37.5317 83.7723 22.9857 86.7428Z" fill="#478CC8"/>
<path d="M6.67834 92.9017C4.70162 99.4023 3.92192 106.207 4.37712 112.986C4.37712 112.986 10.2959 114.698 30.2587 113.223C30.4576 110.602 33.8194 92.2868 33.8194 92.2868C33.8194 92.2868 20.1447 89.9122 6.67834 92.9017ZM28.1658 105.616H6.67834V104.585H28.1658V105.616ZM28.8003 101.265H7.31283V100.186H28.8003V101.265ZM29.4348 96.9129H7.94732V95.8344H29.4348V96.9129Z" fill="#478CC8"/>
<path d="M122.992 80.6248H118.525L119.331 76.637H133.408L132.602 80.6248H128.135L125.891 91.8907H120.748L122.992 80.6248ZM147.928 81.6489C147.928 83 147.565 84.184 146.838 85.2009C146.126 86.2033 145.117 86.9514 143.809 87.4454L146.359 91.8907H141.02L138.863 88.0555H137.599L136.836 91.8907H131.693L134.744 76.637H141.587C143.591 76.637 145.146 77.0801 146.25 77.9663C147.368 78.8379 147.928 80.0655 147.928 81.6489ZM142.72 82.1501C142.72 81.1187 142.081 80.603 140.802 80.603H139.081L138.362 84.1767H140.475C141.187 84.1767 141.739 84.0024 142.131 83.6537C142.524 83.2905 142.72 82.7893 142.72 82.1501ZM159.044 89.2322H153.226L151.7 91.8907H146.274L155.993 76.637H161.049L164.666 91.8907H159.545L159.044 89.2322ZM158.325 85.5278L157.584 81.6272L155.339 85.5278H158.325ZM183.573 76.637L180.522 91.8907H176.295L171.915 84.7869L170.499 91.8907H165.487L168.537 76.637H172.765L177.145 83.7409L178.561 76.637H183.573ZM189.058 92.2394C187.736 92.2394 186.494 92.1014 185.332 91.8254C184.17 91.5348 183.211 91.1571 182.456 90.6922L184.439 86.9006C186.08 87.8449 187.794 88.317 189.581 88.317C190.235 88.317 190.736 88.2371 191.085 88.0773C191.433 87.9175 191.608 87.6996 191.608 87.4236C191.608 87.1621 191.426 86.9514 191.063 86.7916C190.714 86.6318 190.155 86.4575 189.385 86.2687C188.368 86.0072 187.526 85.7457 186.857 85.4842C186.189 85.2082 185.601 84.7941 185.092 84.2421C184.598 83.6755 184.351 82.9346 184.351 82.0194C184.351 80.8717 184.656 79.8693 185.267 79.0122C185.891 78.1406 186.785 77.4723 187.947 77.0075C189.109 76.528 190.482 76.2883 192.065 76.2883C193.199 76.2883 194.252 76.4046 195.225 76.637C196.213 76.8549 197.063 77.1745 197.775 77.5958L195.922 81.3439C195.327 80.9662 194.666 80.6829 193.939 80.494C193.228 80.3052 192.494 80.2107 191.739 80.2107C191.027 80.2107 190.475 80.3124 190.082 80.5158C189.69 80.7192 189.494 80.9589 189.494 81.2349C189.494 81.5109 189.668 81.7288 190.017 81.8887C190.38 82.0485 190.969 82.2228 191.782 82.4116C192.77 82.6441 193.598 82.891 194.266 83.1525C194.949 83.414 195.537 83.8208 196.031 84.3728C196.525 84.9249 196.772 85.6512 196.772 86.5519C196.772 87.6851 196.46 88.6802 195.835 89.5373C195.211 90.3944 194.317 91.0627 193.155 91.5421C191.993 92.007 190.627 92.2394 189.058 92.2394ZM208.435 89.2322H202.617L201.092 91.8907H195.666L205.385 76.637H210.44L214.058 91.8907H208.937L208.435 89.2322ZM207.716 85.5278L206.975 81.6272L204.731 85.5278H207.716ZM226.367 83.8498H230.834L229.527 90.4307C228.713 91.0118 227.776 91.4622 226.716 91.7818C225.67 92.0869 224.544 92.2394 223.338 92.2394C221.784 92.2394 220.411 91.9561 219.22 91.3896C218.043 90.8085 217.128 90.0022 216.474 88.9707C215.835 87.9393 215.515 86.7553 215.515 85.4188C215.515 83.6465 215.929 82.0702 216.757 80.6901C217.585 79.31 218.74 78.235 220.222 77.4651C221.704 76.6806 223.404 76.2883 225.321 76.2883C228.488 76.2883 230.798 77.2835 232.251 79.2737L228.568 82.1284C228.089 81.5182 227.573 81.0896 227.021 80.8427C226.469 80.5812 225.822 80.4504 225.082 80.4504C224.195 80.4504 223.418 80.6466 222.75 81.0388C222.096 81.431 221.588 81.9831 221.225 82.6949C220.876 83.3922 220.702 84.1912 220.702 85.0919C220.702 85.9926 220.999 86.719 221.595 87.271C222.191 87.8086 223.011 88.0773 224.057 88.0773C224.58 88.0773 225.082 88.0047 225.561 87.8594L226.367 83.8498ZM247.647 81.6489C247.647 83 247.284 84.184 246.558 85.2009C245.846 86.2033 244.836 86.9514 243.529 87.4454L246.078 91.8907H240.74L238.582 88.0555H237.318L236.556 91.8907H231.413L234.464 76.637H241.306C243.311 76.637 244.865 77.0801 245.97 77.9663C247.088 78.8379 247.647 80.0655 247.647 81.6489ZM242.439 82.1501C242.439 81.1187 241.8 80.603 240.522 80.603H238.8L238.081 84.1767H240.195C240.907 84.1767 241.459 84.0024 241.851 83.6537C242.243 83.2905 242.439 82.7893 242.439 82.1501ZM256.236 92.2394C254.681 92.2394 253.316 91.9561 252.139 91.3896C250.977 90.8085 250.076 90.0022 249.437 88.9707C248.812 87.9393 248.5 86.7553 248.5 85.4188C248.5 83.6465 248.907 82.0702 249.72 80.6901C250.548 79.2955 251.689 78.2132 253.141 77.4433C254.609 76.6733 256.265 76.2883 258.11 76.2883C259.664 76.2883 261.022 76.5789 262.185 77.16C263.361 77.7266 264.262 78.5256 264.887 79.557C265.526 80.5885 265.846 81.7724 265.846 83.1089C265.846 84.8813 265.432 86.4648 264.603 87.8594C263.79 89.2395 262.65 90.3145 261.182 91.0845C259.73 91.8544 258.081 92.2394 256.236 92.2394ZM256.671 88.0773C257.485 88.0773 258.19 87.8667 258.785 87.4454C259.395 87.0241 259.86 86.4575 260.18 85.7457C260.499 85.0338 260.659 84.2566 260.659 83.414C260.659 82.5133 260.391 81.7942 259.853 81.2567C259.33 80.7192 258.604 80.4504 257.674 80.4504C256.86 80.4504 256.149 80.6611 255.538 81.0824C254.943 81.5037 254.485 82.0702 254.166 82.7821C253.846 83.4939 253.686 84.2711 253.686 85.1137C253.686 86.0144 253.948 86.7335 254.471 87.271C255.008 87.8086 255.742 88.0773 256.671 88.0773Z" fill="#478CC8"/>
<path d="M154.452 101.683L152.608 110.903H150.501L152.002 103.422H148.841L148.314 105.648C147.99 107.035 147.66 108.115 147.327 108.888C146.993 109.652 146.602 110.205 146.154 110.547C145.707 110.881 145.149 111.048 144.482 111.048C144.148 111.048 143.797 111 143.428 110.903L143.915 109.099C144.021 109.134 144.139 109.151 144.271 109.151C144.605 109.151 144.894 109.033 145.14 108.796C145.386 108.559 145.614 108.172 145.825 107.637C146.036 107.101 146.251 106.363 146.471 105.424L147.366 101.683H154.452ZM158.454 111.008C157.743 111.008 157.115 110.877 156.57 110.613C156.035 110.35 155.618 109.981 155.319 109.507C155.029 109.024 154.884 108.466 154.884 107.834C154.884 107.053 155.069 106.35 155.438 105.727C155.806 105.103 156.316 104.612 156.965 104.252C157.615 103.892 158.348 103.712 159.165 103.712C159.885 103.712 160.513 103.843 161.048 104.107C161.584 104.37 161.997 104.743 162.286 105.226C162.585 105.7 162.734 106.254 162.734 106.886C162.734 107.667 162.55 108.37 162.181 108.993C161.821 109.617 161.312 110.108 160.653 110.468C160.004 110.828 159.27 111.008 158.454 111.008ZM158.585 109.309C158.981 109.309 159.336 109.213 159.652 109.02C159.968 108.818 160.214 108.541 160.39 108.19C160.565 107.839 160.653 107.435 160.653 106.978C160.653 106.495 160.513 106.113 160.232 105.832C159.951 105.551 159.556 105.411 159.046 105.411C158.643 105.411 158.283 105.512 157.966 105.714C157.65 105.907 157.404 106.179 157.229 106.53C157.053 106.881 156.965 107.285 156.965 107.742C156.965 108.225 157.106 108.607 157.387 108.888C157.677 109.169 158.076 109.309 158.585 109.309ZM170.191 105.503H166.543L165.489 110.903H163.435L164.857 103.817H170.521L170.191 105.503ZM171.623 103.817H173.677L172.795 108.124L177.075 103.817H179.011L177.602 110.903H175.534L176.43 106.583L172.149 110.903H170.2L171.623 103.817ZM183.304 111.008C182.576 111.008 181.939 110.877 181.395 110.613C180.85 110.35 180.429 109.981 180.13 109.507C179.84 109.024 179.696 108.466 179.696 107.834C179.696 107.053 179.88 106.35 180.249 105.727C180.618 105.103 181.131 104.612 181.79 104.252C182.448 103.892 183.19 103.712 184.016 103.712C184.771 103.712 185.42 103.87 185.965 104.186C186.518 104.493 186.931 104.932 187.203 105.503L185.464 106.372C185.157 105.731 184.63 105.411 183.884 105.411C183.48 105.411 183.116 105.512 182.791 105.714C182.475 105.907 182.224 106.179 182.04 106.53C181.864 106.881 181.777 107.281 181.777 107.729C181.777 108.212 181.921 108.598 182.211 108.888C182.501 109.169 182.905 109.309 183.423 109.309C184.178 109.309 184.758 108.993 185.161 108.361L186.676 109.309C186.334 109.845 185.864 110.262 185.267 110.561C184.679 110.859 184.024 111.008 183.304 111.008ZM194.52 105.503H192.11L191.056 110.903H189.002L190.055 105.503H187.684L188.027 103.817H194.863L194.52 105.503ZM195.958 103.817H198.012L197.13 108.124L201.411 103.817H203.347L201.937 110.903H199.87L200.765 106.583L196.485 110.903H194.535L195.958 103.817ZM209.352 107.347L211.301 110.903H208.93L207.653 108.216H206.494L205.954 110.903H203.899L205.321 103.817H207.376L206.823 106.57H207.89L210.379 103.817H212.618L209.352 107.347ZM220.732 103.817L219.323 110.903H217.373L217.505 110.205C216.917 110.741 216.192 111.008 215.332 111.008C214.779 111.008 214.27 110.881 213.804 110.626C213.339 110.372 212.966 110.007 212.685 109.533C212.412 109.05 212.276 108.484 212.276 107.834C212.276 107.053 212.448 106.35 212.79 105.727C213.141 105.095 213.615 104.603 214.212 104.252C214.81 103.892 215.468 103.712 216.188 103.712C217.277 103.712 218.045 104.067 218.493 104.779L218.677 103.817H220.732ZM215.964 109.309C216.368 109.309 216.728 109.213 217.044 109.02C217.36 108.818 217.606 108.541 217.782 108.19C217.957 107.839 218.045 107.435 218.045 106.978C218.045 106.495 217.9 106.113 217.611 105.832C217.33 105.551 216.934 105.411 216.425 105.411C216.021 105.411 215.661 105.512 215.345 105.714C215.029 105.907 214.783 106.179 214.608 106.53C214.432 106.881 214.344 107.285 214.344 107.742C214.344 108.225 214.485 108.607 214.766 108.888C215.055 109.169 215.455 109.309 215.964 109.309Z" fill="white"/>
<path d="M250.544 68.8909H118.141C128.554 62.6793 156.126 50.5003 183.103 51.4779C210.079 52.4554 239.304 63.4939 250.544 68.8909Z" fill="#478CC8"/>
</svg>
