<svg width="17" height="21" viewBox="0 0 17 21" fill="none" xmlns="http://www.w3.org/2000/svg">
<path d="M8.58649 0.394287C4.39234 0.394287 0.979202 3.83109 0.979202 8.05652C0.979202 14.0604 7.87141 20.2595 8.16471 20.5198C8.28558 20.6271 8.43604 20.6804 8.58649 20.6804C8.73695 20.6804 8.8874 20.6271 9.00828 20.5206C9.30158 20.2595 16.1938 14.0604 16.1938 8.05652C16.1938 3.83109 12.7806 0.394287 8.58649 0.394287ZM8.58649 12.2279C6.25613 12.2279 4.36022 10.3319 4.36022 8.00158C4.36022 5.67121 6.25613 3.77531 8.58649 3.77531C10.9169 3.77531 12.8128 5.67121 12.8128 8.00158C12.8128 10.3319 10.9169 12.2279 8.58649 12.2279Z" fill="#478CC8"/>
</svg>
