<svg width="20" height="18" viewBox="0 0 20 18" fill="none" xmlns="http://www.w3.org/2000/svg">
<path d="M9.70643 0.215698C4.54561 0.215698 0.346949 3.99443 0.346949 8.63923C0.346949 10.2628 0.860473 11.8355 1.83448 13.1954C1.6501 15.2349 1.15592 16.7489 0.43836 17.4662C0.343517 17.561 0.319806 17.7061 0.379707 17.8259C0.432744 17.9329 0.541938 17.9987 0.658932 17.9987C0.673283 17.9987 0.687634 17.9978 0.702297 17.9956C0.82865 17.9778 3.76378 17.5554 5.88683 16.3299C7.09233 16.8163 8.37645 17.0628 9.70643 17.0628C14.8673 17.0628 19.0659 13.284 19.0659 8.63923C19.0659 3.99443 14.8673 0.215698 9.70643 0.215698ZM5.33867 9.88717C4.65044 9.88717 4.09074 9.32747 4.09074 8.63923C4.09074 7.951 4.65044 7.3913 5.33867 7.3913C6.02691 7.3913 6.58661 7.951 6.58661 8.63923C6.58661 9.32747 6.02691 9.88717 5.33867 9.88717ZM9.70643 9.88717C9.0182 9.88717 8.4585 9.32747 8.4585 8.63923C8.4585 7.951 9.0182 7.3913 9.70643 7.3913C10.3947 7.3913 10.9544 7.951 10.9544 8.63923C10.9544 9.32747 10.3947 9.88717 9.70643 9.88717ZM14.0742 9.88717C13.386 9.88717 12.8263 9.32747 12.8263 8.63923C12.8263 7.951 13.386 7.3913 14.0742 7.3913C14.7624 7.3913 15.3221 7.951 15.3221 8.63923C15.3221 9.32747 14.7624 9.88717 14.0742 9.88717Z" fill="#478CC8"/>
</svg>
