<svg width="234" height="225" viewBox="0 0 234 225" fill="none" xmlns="http://www.w3.org/2000/svg">
<path d="M213.576 168.624V192.07C213.576 205.644 202.562 216.612 189.034 216.612H37.7563C38.0762 214.967 38.0305 213.368 37.802 211.677H189.034C199.865 211.677 208.64 202.856 208.64 192.07V168.624C208.64 157.793 199.865 149.018 189.034 149.018H160.012V144.082H189.034C202.562 144.082 213.576 155.096 213.576 168.624ZM43.9262 144.036C45.1145 145.544 46.1657 147.235 47.0341 149.018H62.1161V144.082H44.886C44.5661 144.082 44.2462 144.082 43.9262 144.036ZM22.8114 133.753C24.5481 133.753 26.2391 133.936 27.8844 134.255C26.1934 131.285 25.2794 127.948 25.2794 124.475V97.8758C25.2794 87.0441 34.1001 78.2691 44.886 78.2691H93.4227L101.969 73.3332H44.886C31.3579 73.3332 20.3434 84.3476 20.3434 97.8758V124.429C20.3434 127.629 20.9833 130.782 22.2173 133.707H22.8114V133.753ZM120.113 73.3332L128.66 78.2691H196.163C195.843 76.6695 195.889 74.9328 196.118 73.3332H120.113ZM31.3122 207.7C26.4219 217.207 26.5134 216.887 22.8114 223.651C19.1552 216.841 19.1552 217.161 14.3106 207.609C8.87195 214.282 14.1278 225.159 22.8114 224.885C31.495 225.113 36.7052 214.327 31.3122 207.7ZM233.503 22.4199C231.857 38.0047 217.735 63.0043 211.108 76.2125C204.481 62.9586 190.496 38.2789 188.714 22.4199C189.856 -7.28712 232.36 -7.33282 233.503 22.4199ZM219.609 22.4199C219.335 11.1769 202.882 11.1769 202.562 22.4199C202.882 33.6172 219.381 33.5715 219.609 22.4199ZM41.7325 174.154C37.6649 185.443 27.7473 205.278 22.8114 214.419C16.1387 201.073 2.245 176.531 0.41687 160.58C0.41687 148.195 10.4259 138.186 22.8114 138.186C35.1969 138.186 45.2059 148.195 45.2059 160.58C45.2059 163.688 43.8348 168.579 41.7325 174.154ZM31.3122 160.58C31.038 149.337 14.5848 149.337 14.2649 160.58C14.5848 171.823 31.0837 171.778 31.3122 160.58ZM215.039 78.3605L211.108 85.5816C207.361 78.5891 207.589 79.2289 202.562 69.4027C197.215 76.0754 202.516 86.8156 211.108 86.5414C219.7 86.8156 225.002 76.1211 219.7 69.4484C216.958 74.75 215.039 78.3605 215.039 78.3605ZM82.4997 105.28L123.632 81.057C120.525 79.2289 114.218 75.6184 111.064 73.7902C106.585 76.3496 74.7759 94.768 69.52 97.7844L82.4997 105.28ZM85.0134 130.005L90.5891 133.341V115.654L85.0134 112.455V130.005ZM134.51 87.3641L128.523 83.8906L87.3899 108.113L93.0114 111.358L134.51 87.3641ZM152.608 97.7844L139.491 90.1976L97.9473 114.146L111.064 121.733L152.608 97.7844ZM155.076 102.08L113.532 126.075V174.017L155.076 150.023V102.08ZM67.052 102.08V150.023L108.596 174.017V126.075L95.5708 118.534V137.729C95.5708 138.597 95.068 139.466 94.2911 139.877C93.5141 140.334 92.5544 140.288 91.7774 139.831L81.2657 133.479C80.5344 133.021 80.0774 132.199 80.0774 131.376V109.621L67.052 102.08Z" fill="#E6F3FF"/>
<path d="M73.3922 182.99V196.99H70.7922V190.99H63.5522V196.99H60.9522V182.99H63.5522V188.77H70.7922V182.99H73.3922ZM87.0394 191.71C87.0394 191.883 87.026 192.13 86.9994 192.45H78.6194C78.766 193.236 79.146 193.863 79.7594 194.33C80.386 194.783 81.1594 195.01 82.0794 195.01C83.2527 195.01 84.2194 194.623 84.9794 193.85L86.3194 195.39C85.8394 195.963 85.2327 196.396 84.4994 196.69C83.766 196.983 82.9394 197.13 82.0194 197.13C80.846 197.13 79.8127 196.896 78.9194 196.43C78.026 195.963 77.3327 195.316 76.8394 194.49C76.3594 193.65 76.1194 192.703 76.1194 191.65C76.1194 190.61 76.3527 189.676 76.8194 188.85C77.2994 188.01 77.9594 187.356 78.7994 186.89C79.6394 186.423 80.586 186.19 81.6394 186.19C82.6794 186.19 83.606 186.423 84.4194 186.89C85.246 187.343 85.886 187.99 86.3394 188.83C86.806 189.656 87.0394 190.616 87.0394 191.71ZM81.6394 188.19C80.8394 188.19 80.1594 188.43 79.5994 188.91C79.0527 189.376 78.7194 190.003 78.5994 190.79H84.6594C84.5527 190.016 84.226 189.39 83.6794 188.91C83.1327 188.43 82.4527 188.19 81.6394 188.19ZM97.8431 188.43H94.1031V196.99H91.6031V188.43H87.8431V186.31H97.8431V188.43ZM113.384 188.43H107.684V196.99H105.184V186.31H113.384V188.43ZM121.123 186.19C122.163 186.19 123.09 186.416 123.903 186.87C124.73 187.323 125.377 187.963 125.843 188.79C126.31 189.616 126.543 190.57 126.543 191.65C126.543 192.73 126.31 193.69 125.843 194.53C125.377 195.356 124.73 195.996 123.903 196.45C123.09 196.903 122.163 197.13 121.123 197.13C119.683 197.13 118.543 196.65 117.703 195.69V200.87H115.203V186.31H117.583V187.71C117.997 187.203 118.503 186.823 119.103 186.57C119.717 186.316 120.39 186.19 121.123 186.19ZM120.843 194.99C121.763 194.99 122.517 194.683 123.103 194.07C123.703 193.456 124.003 192.65 124.003 191.65C124.003 190.65 123.703 189.843 123.103 189.23C122.517 188.616 121.763 188.31 120.843 188.31C120.243 188.31 119.703 188.45 119.223 188.73C118.743 188.996 118.363 189.383 118.083 189.89C117.803 190.396 117.663 190.983 117.663 191.65C117.663 192.316 117.803 192.903 118.083 193.41C118.363 193.916 118.743 194.31 119.223 194.59C119.703 194.856 120.243 194.99 120.843 194.99ZM138.819 186.31L133.819 197.85C133.352 199.01 132.785 199.823 132.119 200.29C131.452 200.77 130.645 201.01 129.699 201.01C129.165 201.01 128.639 200.923 128.119 200.75C127.599 200.576 127.172 200.336 126.839 200.03L127.839 198.19C128.079 198.416 128.359 198.596 128.679 198.73C129.012 198.863 129.345 198.93 129.679 198.93C130.119 198.93 130.479 198.816 130.759 198.59C131.052 198.363 131.319 197.983 131.559 197.45L131.739 197.03L127.079 186.31H129.679L133.039 194.21L136.419 186.31H138.819ZM146.681 191.43C147.348 191.616 147.861 191.923 148.221 192.35C148.594 192.763 148.781 193.263 148.781 193.85C148.781 194.503 148.561 195.083 148.121 195.59C147.681 196.083 147.074 196.47 146.301 196.75C145.528 197.03 144.648 197.17 143.661 197.17C142.834 197.17 142.028 197.076 141.241 196.89C140.454 196.69 139.741 196.41 139.101 196.05L139.821 194.19C140.341 194.483 140.928 194.71 141.581 194.87C142.234 195.03 142.888 195.11 143.541 195.11C144.381 195.11 145.034 194.983 145.501 194.73C145.981 194.463 146.221 194.103 146.221 193.65C146.221 193.236 146.034 192.916 145.661 192.69C145.301 192.463 144.788 192.35 144.121 192.35H142.041V190.67H143.921C144.548 190.67 145.034 190.563 145.381 190.35C145.741 190.136 145.921 189.836 145.921 189.45C145.921 189.063 145.708 188.756 145.281 188.53C144.854 188.303 144.268 188.19 143.521 188.19C142.454 188.19 141.328 188.45 140.141 188.97L139.501 187.13C140.901 186.476 142.314 186.15 143.741 186.15C144.648 186.15 145.461 186.276 146.181 186.53C146.901 186.77 147.461 187.116 147.861 187.57C148.274 188.01 148.481 188.516 148.481 189.09C148.481 189.61 148.321 190.076 148.001 190.49C147.681 190.89 147.241 191.203 146.681 191.43ZM156.135 197.13C155.055 197.13 154.082 196.896 153.215 196.43C152.349 195.963 151.669 195.316 151.175 194.49C150.695 193.65 150.455 192.703 150.455 191.65C150.455 190.596 150.695 189.656 151.175 188.83C151.669 188.003 152.349 187.356 153.215 186.89C154.082 186.423 155.055 186.19 156.135 186.19C157.229 186.19 158.209 186.423 159.075 186.89C159.942 187.356 160.615 188.003 161.095 188.83C161.589 189.656 161.835 190.596 161.835 191.65C161.835 192.703 161.589 193.65 161.095 194.49C160.615 195.316 159.942 195.963 159.075 196.43C158.209 196.896 157.229 197.13 156.135 197.13ZM156.135 194.99C157.055 194.99 157.815 194.683 158.415 194.07C159.015 193.456 159.315 192.65 159.315 191.65C159.315 190.65 159.015 189.843 158.415 189.23C157.815 188.616 157.055 188.31 156.135 188.31C155.215 188.31 154.455 188.616 153.855 189.23C153.269 189.843 152.975 190.65 152.975 191.65C152.975 192.65 153.269 193.456 153.855 194.07C154.455 194.683 155.215 194.99 156.135 194.99ZM172.045 191.43C173.365 191.83 174.025 192.683 174.025 193.99C174.025 194.95 173.665 195.69 172.945 196.21C172.225 196.73 171.158 196.99 169.745 196.99H164.305V186.31H169.525C170.832 186.31 171.852 186.55 172.585 187.03C173.318 187.51 173.685 188.19 173.685 189.07C173.685 189.616 173.538 190.09 173.245 190.49C172.965 190.89 172.565 191.203 172.045 191.43ZM166.685 190.77H169.305C170.598 190.77 171.245 190.323 171.245 189.43C171.245 188.563 170.598 188.13 169.305 188.13H166.685V190.77ZM169.545 195.17C170.918 195.17 171.605 194.723 171.605 193.83C171.605 193.363 171.445 193.016 171.125 192.79C170.805 192.55 170.305 192.43 169.625 192.43H166.685V195.17H169.545Z" fill="#213F50"/>
</svg>
