<svg width="17" height="17" viewBox="0 0 17 17" fill="none" xmlns="http://www.w3.org/2000/svg">
<path d="M8.24926 9.19182C8.79952 9.19182 9.24559 8.74575 9.24559 8.19549C9.24559 7.64523 8.79952 7.19916 8.24926 7.19916C7.699 7.19916 7.25293 7.64523 7.25293 8.19549C7.25293 8.74575 7.699 9.19182 8.24926 9.19182Z" fill="#478CC8"/>
<path d="M15.0795 4.07434C14.7507 4.33397 14.3361 4.48953 13.8856 4.48953C13.5223 4.48953 13.1823 4.38855 12.8918 4.21339L9.9037 7.20147C10.0789 7.492 10.1798 7.83203 10.1798 8.19525C10.1798 9.25968 9.31387 10.1256 8.24945 10.1256C7.18503 10.1256 6.31906 9.25968 6.31906 8.19525C6.31906 7.13083 7.18503 6.26486 8.24945 6.26486C8.61271 6.26486 8.95273 6.36586 9.24323 6.54103L12.2313 3.55294C12.0561 3.26245 11.9552 2.92242 11.9552 2.55917C11.9552 2.0847 12.1276 1.64992 12.4126 1.31344C11.2025 0.576252 9.80015 0.224609 8.24945 0.224609C3.84738 0.224609 0.278809 3.79318 0.278809 8.19525C0.278809 12.5973 3.84738 16.1659 8.24945 16.1659C12.6515 16.1659 16.2201 12.5973 16.2201 8.19525C16.2201 6.66928 15.8149 5.27523 15.0795 4.07434Z" fill="#478CC8"/>
<path d="M13.8855 3.55553C14.4357 3.55553 14.8818 3.10945 14.8818 2.5592C14.8818 2.00894 14.4357 1.56287 13.8855 1.56287C13.3352 1.56287 12.8892 2.00894 12.8892 2.5592C12.8892 3.10945 13.3352 3.55553 13.8855 3.55553Z" fill="#478CC8"/>
</svg>
