<svg width="18" height="18" viewBox="0 0 18 18" fill="none" xmlns="http://www.w3.org/2000/svg">
<path d="M17.9722 8.62839C17.9247 7.75204 17.7432 6.88815 17.4341 6.06676C17.3164 5.75412 17.0793 5.50104 16.775 5.36319C16.4707 5.22533 16.1242 5.214 15.8115 5.33169C15.4989 5.44937 15.2458 5.68643 15.1079 5.99072C14.9701 6.295 14.9588 6.64158 15.0764 6.95422C15.4136 7.8482 15.5353 8.80902 15.4318 9.75883C15.3284 10.7086 15.0026 11.6207 14.4809 12.4211C13.9592 13.2216 13.2563 13.8878 12.4291 14.366C11.602 14.8441 10.6738 15.1206 9.71978 15.1731C8.92244 15.2172 8.12423 15.1038 7.37071 14.8395C6.6172 14.5751 5.92313 14.1649 5.32814 13.6322C4.12652 12.5566 3.40141 11.0476 3.31234 9.43735C3.22327 7.82706 3.77753 6.24735 4.85319 5.04572C5.92886 3.84409 7.43781 3.11899 9.04809 3.02991C9.89417 2.98241 10.7408 3.11402 11.5325 3.41613L11.2999 3.49338C11.0167 3.58847 10.7764 3.78117 10.6222 4.03705C10.4679 4.29293 10.4096 4.59532 10.4578 4.8902C10.5059 5.18508 10.6573 5.45324 10.885 5.64678C11.1126 5.84031 11.4016 5.94662 11.7004 5.9467C11.8357 5.94697 11.9701 5.92513 12.0984 5.88205L14.6172 5.04244C14.868 4.95891 15.0862 4.79856 15.2408 4.58413C15.3954 4.3697 15.4786 4.11205 15.4786 3.84769V1.32888C15.4654 1.00828 15.3303 0.704828 15.1009 0.480477C14.8715 0.256126 14.5651 0.127796 14.2443 0.121688C13.9234 0.115581 13.6124 0.232156 13.3746 0.447613C13.1368 0.66307 12.9903 0.961159 12.9648 1.28102C11.6949 0.704138 10.305 0.440946 8.91208 0.513622C7.21378 0.607548 5.58146 1.20291 4.22149 2.22443C2.86152 3.24596 1.83496 4.64778 1.27161 6.25266C0.708247 7.85755 0.633382 9.59344 1.05648 11.2409C1.47957 12.8883 2.38163 14.3733 3.6486 15.5081C5.21986 16.923 7.26028 17.7045 9.3747 17.7011C9.53506 17.7011 9.69711 17.7011 9.85831 17.6877C12.1356 17.5622 14.2698 16.5373 15.7914 14.8384C17.313 13.1395 18.0975 10.9057 17.9722 8.62839Z" fill="#213F50"/>
</svg>
