<svg width="20" height="20" viewBox="0 0 20 20" fill="none" xmlns="http://www.w3.org/2000/svg">
<path d="M11.9563 8.11093C11.9563 8.69671 11.8442 9.06794 11.6013 9.25355C11.374 9.42527 10.905 9.51094 10.2087 9.51094H8.74475V6.72482H10.2087C10.905 6.72482 11.3598 6.81086 11.6013 6.99648C11.8427 7.16669 11.9563 7.53942 11.9563 8.11093Z" fill="#478CC8"/>
<path d="M0.362793 10.0598C0.362793 15.2477 4.54609 19.4533 9.70636 19.4533C14.8666 19.4533 19.0499 15.2477 19.0499 10.0598C19.0499 4.87193 14.8666 0.66626 9.70636 0.66626C4.54609 0.66626 0.362793 4.87193 0.362793 10.0598ZM13.7054 10.8252C13.0233 11.3396 12.0983 11.4823 10.4938 11.4823H8.74472V12.3822H11.2316C11.3882 12.3822 11.4592 12.454 11.4592 12.5968V13.6113C11.4592 13.7545 11.3882 13.8258 11.2316 13.8258H8.74472V15.4686C8.74472 15.6546 8.70211 15.6974 8.53169 15.6974H6.32885C6.15842 15.6974 6.11581 15.6546 6.11581 15.4686V13.8255H5.03458C4.87835 13.8255 4.80734 13.7541 4.80734 13.6109V12.5964C4.80734 12.4536 4.87835 12.3819 5.03458 12.3819H6.11469V10.939H5.03458C4.87835 10.939 4.80734 10.8676 4.80734 10.7249V9.72501C4.80734 9.58222 4.87835 9.51083 5.03458 9.51083H6.11469V4.79603C6.11469 4.66753 6.1857 4.61042 6.32773 4.59614C7.72067 4.48342 9.11323 4.4248 10.4916 4.4248C12.055 4.4248 13.1347 4.68181 13.7174 5.18192C14.3154 5.68203 14.6143 6.63904 14.6143 8.03755C14.614 9.468 14.3864 10.3108 13.7054 10.8252Z" fill="#478CC8"/>
</svg>
