<svg width="16" height="16" viewBox="0 0 16 16" fill="none" xmlns="http://www.w3.org/2000/svg">
<path d="M9.7911 6.69503C9.7911 7.16845 9.70048 7.46847 9.50415 7.61849C9.3205 7.75726 8.94142 7.8265 8.3787 7.8265H7.19556V5.5748H8.3787C8.94142 5.5748 9.30902 5.64434 9.50415 5.79435C9.69928 5.93191 9.7911 6.23315 9.7911 6.69503Z" fill="#4B4B4B"/>
<path d="M0.421387 8.27C0.421387 12.4627 3.80227 15.8617 7.97272 15.8617C12.1432 15.8617 15.524 12.4627 15.524 8.27C15.524 4.07724 12.1432 0.678284 7.97272 0.678284C3.80227 0.678284 0.421387 4.07724 0.421387 8.27ZM11.2047 8.88857C10.6534 9.30429 9.90586 9.41968 8.60914 9.41968H7.19553V10.147H9.2054C9.33196 10.147 9.38935 10.205 9.38935 10.3204V11.1403C9.38935 11.256 9.33196 11.3137 9.2054 11.3137H7.19553V12.6413C7.19553 12.7916 7.1611 12.8262 7.02336 12.8262H5.24306C5.10533 12.8262 5.07089 12.7916 5.07089 12.6413V11.3134H4.19705C4.07079 11.3134 4.0134 11.2557 4.0134 11.14V10.3201C4.0134 10.2047 4.07079 10.1467 4.19705 10.1467H5.06999V8.98058H4.19705C4.07079 8.98058 4.0134 8.92288 4.0134 8.80749V7.99943C4.0134 7.88403 4.07079 7.82634 4.19705 7.82634H5.06999V4.0159C5.06999 3.91205 5.12738 3.86589 5.24216 3.85435C6.36791 3.76325 7.49336 3.71588 8.60733 3.71588C9.87082 3.71588 10.7435 3.92359 11.2144 4.32777C11.6976 4.73195 11.9393 5.5054 11.9393 6.63565C11.939 7.79172 11.755 8.47285 11.2047 8.88857Z" fill="#4B4B4B"/>
</svg>
