<svg width="16" height="16" viewBox="0 0 16 16" fill="none" xmlns="http://www.w3.org/2000/svg">
<path d="M9.47555 6.54379C9.47555 7.01721 9.38493 7.31723 9.1886 7.46724C9.00495 7.60602 8.62587 7.67526 8.06315 7.67526H6.88V5.42355H8.06315C8.62587 5.42355 8.99347 5.49309 9.1886 5.64311C9.38372 5.78067 9.47555 6.08191 9.47555 6.54379Z" fill="#00972A"/>
<path d="M0.105835 8.11875C0.105835 12.3115 3.48672 15.7105 7.65717 15.7105C11.8276 15.7105 15.2085 12.3115 15.2085 8.11875C15.2085 3.926 11.8276 0.527039 7.65717 0.527039C3.48672 0.527039 0.105835 3.926 0.105835 8.11875ZM10.8891 8.73732C10.3379 9.15304 9.59031 9.26844 8.29359 9.26844H6.87998V9.99572H8.88984C9.01641 9.99572 9.0738 10.0537 9.0738 10.1691V10.989C9.0738 11.1047 9.01641 11.1624 8.88984 11.1624H6.87998V12.4901C6.87998 12.6404 6.84555 12.675 6.70781 12.675H4.92751C4.78977 12.675 4.75534 12.6404 4.75534 12.4901V11.1621H3.8815C3.75524 11.1621 3.69785 11.1044 3.69785 10.9887V10.1688C3.69785 10.0534 3.75524 9.99542 3.8815 9.99542H4.75443V8.82933H3.8815C3.75524 8.82933 3.69785 8.77164 3.69785 8.65624V7.84818C3.69785 7.73279 3.75524 7.67509 3.8815 7.67509H4.75443V3.86466C4.75443 3.7608 4.81182 3.71465 4.9266 3.70311C6.05236 3.61201 7.17781 3.56463 8.29178 3.56463C9.55527 3.56463 10.4279 3.77234 10.8988 4.17653C11.3821 4.58071 11.6237 5.35415 11.6237 6.48441C11.6234 7.64047 11.4395 8.3216 10.8891 8.73732Z" fill="#00972A"/>
</svg>
