<svg width="35" height="34" viewBox="0 0 35 34" fill="none" xmlns="http://www.w3.org/2000/svg">
<path d="M20.119 19.4097C19.2216 20.2924 18.0311 20.7778 16.7615 20.7778C15.4918 20.7778 14.3013 20.2924 13.4039 19.4097C12.5066 18.5281 12.0141 17.356 12.0141 16.1083C12.0141 14.8605 12.5076 13.6885 13.4039 12.8058C14.3013 11.9231 15.4918 11.4377 16.7615 11.4377C18.0311 11.4377 19.2216 11.9231 20.119 12.8058C21.0163 13.6874 21.5088 14.8605 21.5088 16.1083C21.5088 17.356 21.0163 18.5281 20.119 19.4097ZM34.4612 17.0397C34.4612 26.19 26.892 33.6351 17.5892 33.6351C8.28646 33.6351 0.717285 26.19 0.717285 17.0397C0.717285 7.88943 8.28646 0.444336 17.5892 0.444336C26.892 0.444336 34.4612 7.88839 34.4612 17.0397ZM25.0962 22.8149L22.306 20.0632C23.1538 18.9191 23.6178 17.55 23.6178 16.1072C23.6178 14.3056 22.905 12.6118 21.61 11.3382C20.3151 10.0645 18.5942 9.36227 16.7615 9.36227C14.9287 9.36227 13.2078 10.0645 11.9129 11.3382C10.618 12.6118 9.90512 14.3056 9.90512 16.1072C9.90512 17.9089 10.619 19.6026 11.9129 20.8753C13.2078 22.149 14.9287 22.8512 16.7615 22.8512C18.243 22.8512 19.6497 22.3844 20.8202 21.5339L23.603 24.2784C23.8087 24.4817 24.0786 24.5833 24.3496 24.5833C24.6196 24.5833 24.8885 24.4827 25.0941 24.2805C25.5064 23.878 25.5064 23.2204 25.0962 22.8149Z" fill="#64B82A"/>
</svg>
