<svg width="18" height="18" viewBox="0 0 18 18" fill="none" xmlns="http://www.w3.org/2000/svg">
<path fill-rule="evenodd" clip-rule="evenodd" d="M9.25977 17.9556C4.54108 17.9556 0.702148 14.1166 0.702148 9.39795C0.702148 4.67926 4.54108 0.840332 9.25977 0.840332C13.9785 0.840332 17.8174 4.67926 17.8174 9.39795C17.8174 14.1166 13.9785 17.9556 9.25977 17.9556ZM13.6976 12.4042C13.8031 12.4042 13.889 12.3183 13.889 12.2128V6.84032L9.53498 10.2979C9.45442 10.3619 9.35704 10.3939 9.25973 10.3939C9.16242 10.3939 9.06508 10.3619 8.98448 10.2979L4.6305 6.84032V12.2128C4.6305 12.3183 4.71637 12.4042 4.82187 12.4042H13.6976ZM13.0304 6.39172L9.25977 9.38605L5.4891 6.39172H13.0304ZM14.7743 6.5831V12.2129C14.7743 12.8065 14.2913 13.2895 13.6976 13.2895H4.82187C4.22819 13.2895 3.74525 12.8065 3.74525 12.2129V6.5831C3.74525 5.98944 4.22822 5.50647 4.82187 5.50647H13.6976C14.2913 5.50644 14.7743 5.98944 14.7743 6.5831Z" fill="#478CC8"/>
</svg>
