<svg width="19" height="19" viewBox="0 0 19 19" fill="none" xmlns="http://www.w3.org/2000/svg">
<path d="M16.0844 2.70462C14.3584 0.97871 12.0637 0.0281982 9.62292 0.0281982C7.18213 0.0281982 4.88743 0.97871 3.16149 2.70462C1.43562 4.43052 0.485107 6.72522 0.485107 9.16602C0.485107 11.6068 1.43562 13.9015 3.16149 15.6274C4.88743 17.3533 7.18213 18.3038 9.62292 18.3038C12.0637 18.3038 14.3584 17.3533 16.0844 15.6274C17.8102 13.9015 18.7607 11.6068 18.7607 9.16602C18.7607 6.72522 17.8102 4.43052 16.0844 2.70462ZM9.62292 17.233C7.23606 17.233 5.08839 16.1906 3.6101 14.5377C4.52656 12.108 6.87258 10.3796 9.62292 10.3796C7.84869 10.3796 6.41041 8.94135 6.41041 7.16712C6.41041 5.39288 7.84869 3.9546 9.62292 3.9546C11.3972 3.9546 12.8354 5.39288 12.8354 7.16712C12.8354 8.94135 11.3972 10.3796 9.62292 10.3796C12.3733 10.3796 14.7193 12.108 15.6358 14.5377C14.1575 16.1906 12.0098 17.233 9.62292 17.233Z" fill="#478CC8"/>
</svg>
