<svg width="16" height="15" viewBox="0 0 16 15" fill="none" xmlns="http://www.w3.org/2000/svg">
<path d="M14.2308 12.2561H11.8484C10.3471 12.2561 9.12566 11.0347 9.12566 9.53336C9.12566 8.03207 10.3471 6.81063 11.8484 6.81063H14.2308C14.4189 6.81063 14.5711 6.6584 14.5711 6.47028V5.44925C14.5711 4.73555 14.0176 4.15513 13.3181 4.09885L11.3635 0.684787C11.1824 0.369034 10.8899 0.143355 10.5399 0.0496437C10.1915 -0.0434293 9.82729 0.00545239 9.51553 0.186908L2.81494 4.08787H1.63811C0.887308 4.08787 0.276733 4.69841 0.276733 5.44925V13.6175C0.276733 14.3683 0.887276 14.9789 1.63811 14.9789H13.2098C13.9606 14.9789 14.5711 14.3683 14.5711 13.6175V12.5964C14.5711 12.4083 14.4189 12.2561 14.2308 12.2561ZM11.7856 2.79257L12.5272 4.08787H9.56074L11.7856 2.79257ZM4.1678 4.08787L9.85818 0.775179C10.0121 0.685106 10.1919 0.661175 10.3637 0.707058C10.5375 0.753578 10.6825 0.865923 10.7725 1.02313L10.7732 1.02437L5.51144 4.08787H4.1678Z" fill="#478CC8"/>
<path d="M14.2307 7.4913H11.8483C10.7223 7.4913 9.80627 8.40729 9.80627 9.53336C9.80627 10.6594 10.7223 11.5754 11.8483 11.5754H14.2307C14.7938 11.5754 15.2518 11.1174 15.2518 10.5544V8.51233C15.2518 7.9493 14.7938 7.4913 14.2307 7.4913ZM11.8483 10.214C11.4731 10.214 11.1677 9.90859 11.1677 9.53336C11.1677 9.15813 11.4731 8.85268 11.8483 8.85268C12.2236 8.85268 12.529 9.15813 12.529 9.53336C12.529 9.90859 12.2236 10.214 11.8483 10.214Z" fill="#478CC8"/>
</svg>
