<svg width="17" height="17" viewBox="0 0 17 17" fill="none" xmlns="http://www.w3.org/2000/svg">
<path d="M14.355 2.93333C11.2261 -0.194901 6.13764 -0.194901 3.00875 2.93333C-0.1188 6.06157 -0.1188 11.1513 3.00875 14.2796C4.57319 15.8434 6.62769 16.6249 8.68221 16.6249C10.7367 16.6249 12.7905 15.8433 14.355 14.2796C17.4832 11.1514 17.4832 6.06157 14.355 2.93333ZM11.9909 10.9702C12.2523 11.2316 12.2523 11.6541 11.9909 11.9155C11.8606 12.0459 11.6894 12.1114 11.5182 12.1114C11.3471 12.1114 11.1759 12.0459 11.0456 11.9155L8.68218 9.55146L6.31947 11.9148C6.18844 12.0452 6.01726 12.1107 5.84678 12.1107C5.67564 12.1107 5.50446 12.0452 5.37409 11.9148C5.11269 11.6534 5.11269 11.2302 5.37409 10.9695L7.73681 8.60612L5.37343 6.24274C5.11204 5.98134 5.11204 5.55814 5.37343 5.2974C5.63418 5.036 6.05738 5.036 6.31878 5.2974L8.68215 7.66077L11.0455 5.2974C11.3069 5.036 11.7295 5.036 11.9909 5.2974C12.2523 5.55814 12.2523 5.98134 11.9909 6.24274L9.62749 8.60612L11.9909 10.9702Z" fill="#D97B7B"/>
</svg>
